<svg viewBox="0 0 800 800" xmlns="http://www.w3.org/2000/svg"><path d="M728.3295402382429,132.2986792986186 L706.0413278573886,145.1667847164603 M706.0413278573886,145.1667847164603 L706.0164803519474,132.2986792986186 M728.3295402382429,119.44488767990686 L706.0164803519474,132.2986792986186 M728.3295402382429,132.2986792986186 L728.3295402382429,119.44488767990686 M739.5110009745596,164.57677612884726 L761.799130067686,151.622355996314 M706.0413278573886,145.1667847164603 L739.5110009745596,164.57677612884726 M761.799130067686,151.622355996314 L728.3295402382429,132.2986792986186 M739.5110009745596,164.57677612884726 L739.523508201334,151.6872005489908 M706.0164803519474,132.2986792986186 L739.523508201334,151.6872005489908 M739.523508201334,151.6872005489908 L761.8364845206206,138.74709373233617 M761.8364845206206,138.74709373233617 L728.3295402382429,119.44488767990686 M761.8364845206206,138.74709373233617 L761.799130067686,151.622355996314 M256.31351520523367,404.8172584132436 L38.98319009310717,530.2929801197988 M38.98319009310717,530.2929801197988 L38.163515479379384,517.0259594724733 M255.7636760722146,391.67393986101683 L38.163515479379384,517.0259594724733 M256.31351520523367,404.8172584132436 L255.7636760722146,391.67393986101683 M256.31351520523367,404.8172584132436 L442.62028195298393,573.6592127489712 M442.62028195298393,573.6592127489712 L265.7000029607078,680.5551123200933 M38.98319009310717,530.2929801197988 L265.7000029607078,680.5551123200933 M265.7000029607078,680.5551123200933 L265.13650778741,667.1479232431136 M38.163515479379384,517.0259594724733 L265.13650778741,667.1479232431136 M255.7636760722146,391.67393986101683 L442.278167911707,560.3508472405039 M442.278167911707,560.3508472405039 L265.13650778741,667.1479232431136 M442.278167911707,560.3508472405039 L442.62028195298393,573.6592127489712 M676.5215994173743,400.76937550364903 L674.4113994477274,399.3024246760125 M674.4113994477274,399.3024246760125 L671.8668392481153,398.1143971383892 M671.8668392481153,398.1143971383892 L668.9855390318169,397.2505875855567 M668.9855390318169,397.2505875855567 L665.8778741742933,396.7439068055535 M665.8778741742933,396.7439068055535 L662.6627618201084,396.6136504782877 M662.6627618201084,396.6136504782877 L659.4631711897073,396.86477307432483 M659.4631711897073,396.86477307432483 L656.4014479427844,397.4877042061013 M656.4014479427844,397.4877042061013 L653.59478895957,398.4587488455321 M653.59478895957,398.4587488455321 L651.1507458322459,399.74088132530414 M651.1507458322459,399.74088132530414 L649.163165335932,401.28519690224584 M649.163165335932,401.28519690224584 L647.7085437403751,403.0326981427497 M647.7085437403751,403.0326981427497 L646.8431815924487,404.91653417269026 M646.8431815924487,404.91653417269026 L646.6008443381977,406.8644781751085 M646.6008443381977,406.8644781751085 L646.9914358984827,408.8017164224393 M646.9914358984827,408.8017164224393 L648.0005261822863,410.65373991920615 M648.0005261822863,410.65373991920615 L649.5898069624257,412.34911429574754 M649.5898069624257,412.34911429574754 L651.6985258459098,413.82240508242035 M651.6985258459098,413.82240508242035 L654.2457260386261,415.01661689988555 M654.2457260386261,415.01661689988555 L657.1333854277715,415.88551359903863 M657.1333854277715,415.88551359903863 L660.2501425841559,416.3954206848398 M660.2501425841559,416.3954206848398 L663.4757292372135,416.52653133400463 M663.4757292372135,416.52653133400463 L666.6855812682214,416.27378259244085 M666.6855812682214,416.27378259244085 L669.7557584505353,415.646951006673 M669.7557584505353,415.646951006673 L672.5677938619228,414.6703974560771 M672.5677938619228,414.6703974560771 L675.0133180482592,413.38192502202537 M675.0133180482592,413.38192502202537 L676.9982764059409,411.8314143951882 M676.9982764059409,411.8314143951882 L678.4465033235497,410.07882604565077 M678.4465033235497,410.07882604565077 L679.3027552601457,408.1917745099172 M679.3027552601457,408.1917745099172 L679.5346182427734,406.24297617215313 M679.5346182427734,406.24297617215313 L679.1338008507852,404.30736405931043 M679.1338008507852,404.30736405931043 L678.1162744886714,402.4592302339355 M678.1162744886714,402.4592302339355 L676.5215994173743,400.76937550364903 M676.5215994173743,400.76937550364903 L676.4612901242295,387.63014846068234 M676.4612901242295,387.63014846068234 L678.0578051906732,389.31829435729696 M678.0578051906732,389.31829435729696 L679.0764988547477,391.16456054988464 M679.0764988547477,391.16456054988464 L679.4777649036239,393.0982180373536 M679.4777649036239,393.0982180373536 L679.2456133495892,395.0450498899729 M679.2456133495892,395.0450498899729 L678.3883452860266,396.9301986399878 M678.3883452860266,396.9301986399878 L676.9384125570745,398.6810210150254 M676.9384125570745,398.6810210150254 L674.9511233548913,400.22997027359816 M674.9511233548913,400.22997027359816 L672.5027325549614,401.51714591609607 M672.5027325549614,401.51714591609607 L669.6874051104681,402.49271703338627 M669.6874051104681,402.49271703338627 L666.6136377018191,403.1189182067726 M666.6136377018191,403.1189182067726 L663.4000363500703,403.3714127985189 M663.4000363500703,403.3714127985189 L660.1706867356768,403.2404339837286 M660.1706867356768,403.2404339837286 L657.0502989921898,402.7310396825475 M657.0502989921898,402.7310396825475 L654.159282091306,401.86301701392483 M654.159282091306,401.86301701392483 L651.6091273637421,400.6700069380971 M651.6091273637421,400.6700069380971 L649.4979707894404,399.1981994875878 M649.4979707894404,399.1981994875878 L647.9068626413782,397.5045330782922 M647.9068626413782,397.5045330782922 L646.8966247962513,395.6543766250802 M646.8966247962513,395.6543766250802 L646.5056084647669,393.71909273904646 M646.5056084647669,393.71909273904646 L646.7482587033102,391.77311535393983 M646.7482587033102,391.77311535393983 L647.6146581806814,389.89118260716464 M647.6146581806814,389.89118260716464 L649.0710003930276,388.1454481281569 M649.0710003930276,388.1454481281569 L651.0609177909633,386.6026948653812 M651.0609177909633,386.6026948653812 L653.5078239985654,385.3218601580086 M653.5078239985654,385.3218601580086 L656.3177624086138,384.35179882919385 M656.3177624086138,384.35179882919385 L659.3830561203098,383.72949868822695 M659.3830561203098,383.72949868822695 L662.5863721442319,383.478630506105 M662.5863721442319,383.478630506105 L665.8052230467405,383.60875486682073 M665.8052230467405,383.60875486682073 L668.9164973098925,384.1149223755632 M668.9164973098925,384.1149223755632 L671.8011402738271,384.97785711082497 M671.8011402738271,384.97785711082497 L674.348648930323,386.1646819500446 M674.348648930323,386.1646819500446 L676.4612901242295,387.63014846068234" stroke="black"  stroke-width="4"  fill="red"/></svg>