<svg viewBox="0 0 800 800" xmlns="http://www.w3.org/2000/svg"><path d="M728.3295402382429,207.4297453987657 L728.3295402382429,194.57595378005396 M38.98319009310717,605.4240462199459 L38.163515479379384,592.1570255726205 M728.3295402382429,207.4297453987657 L38.98319009310717,605.4240462199459 M728.3295402382429,194.57595378005396 L38.163515479379384,592.1570255726205 M761.799130067686,226.75342209646112 L728.3295402382429,207.4297453987657 M761.8364845206206,213.87815983248328 L728.3295402382429,194.57595378005396 M761.8364845206206,213.87815983248328 L761.799130067686,226.75342209646112 M302.1382975516981,494.8650204551484 L38.98319009310717,605.4240462199459 M301.6406130868031,481.7066788513764 L38.163515479379384,592.1570255726205 M301.6406130868031,481.7066788513764 L302.1382975516981,494.8650204551484 M728.3295402382429,233.22340313363594 L728.3295402382429,476.16366784578554 M728.3295402382429,476.16366784578554 L728.0060346616491,476.3591311348059 M302.1382975516981,494.8650204551484 L311.5411508868973,488.67186837981774 M311.5411508868973,488.67186837981774 L321.3657396751422,482.745950758149 M321.3657396751422,482.745950758149 L331.59153745989437,477.0981186026936 M331.59153745989437,477.0981186026936 L342.1973254636715,471.73869480965993 M342.1973254636715,471.73869480965993 L353.1614124322683,466.67736219763094 M353.1614124322683,466.67736219763094 L364.4614852001741,461.9232672195758 M364.4614852001741,461.9232672195758 L376.07485169589654,457.48488100707914 M376.07485169589654,457.48488100707914 L387.97819507365784,453.37017652942427 M387.97819507365784,453.37017652942427 L400.1479650791384,449.5864075436914 M400.1479650791384,449.5864075436914 L412.5600817212746,446.14029878503743 M412.5600817212746,446.14029878503743 L425.1902293559517,443.03789842054925 M425.1902293559517,443.03789842054925 L438.0137704032514,440.2846346457952 M438.0137704032514,440.2846346457952 L451.0057569546394,437.88534446838935 M451.0057569546394,437.88534446838935 L464.14106054280865,435.84420078642745 M464.14106054280865,435.84420078642745 L477.39429558823315,434.16477357450503 M477.39429558823315,434.16477357450503 L490.74002130394354,432.8499575132697 M490.74002130394354,432.8499575132697 L504.1526332772574,431.9020122624421 M504.1526332772574,431.9020122624421 L517.6063600825006,431.3226225193812 M517.6063600825006,431.3226225193812 L531.0755001895361,431.1127586235232 M531.0755001895361,431.1127586235232 L544.5342827467828,431.27280282495747 M544.5342827467828,431.27280282495747 L557.9569431018035,431.80246017563 M557.9569431018035,431.80246017563 L571.3177840346485,432.7008319525622 M571.3177840346485,432.7008319525622 L584.5912151663446,433.96634507643546 M584.5912151663446,433.96634507643546 L597.7517359267083,435.59681767275106 M597.7517359267083,435.59681767275106 L610.7740099331586,437.5894282296249 M610.7740099331586,437.5894282296249 L623.6329219164431,439.9406940167346 M623.6329219164431,439.9406940167346 L636.3035280878454,442.646533048377 M636.3035280878454,442.646533048377 L648.7612480847421,445.7022136985054 M648.7612480847421,445.7022136985054 L660.9816861733307,449.10235607876245 M660.9816861733307,449.10235607876245 L672.9408680430586,452.8410121800026 M672.9408680430586,452.8410121800026 L684.6151723799297,456.9115590903466 M684.6151723799297,456.9115590903466 L695.9813322417666,461.3067826093685 M695.9813322417666,461.3067826093685 L707.0166343660634,466.01884310607454 M707.0166343660634,466.01884310607454 L717.6988012667239,471.03930457692036 M717.6988012667239,471.03930457692036 L728.0060346616491,476.3591311348059 M739.5110009745596,239.70784222899437 L761.799130067686,226.75342209646112 M728.3295402382429,233.22340313363594 L739.5110009745596,239.70784222899437 M728.3295402382429,220.34098413085712 L728.3295402382429,463.02417454802674 M728.3295402382429,463.02417454802674 L728.00565804227,463.2194401420994 M301.6406130868031,481.7066788513764 L311.05494414647046,475.5197536938116 M311.05494414647046,475.5197536938116 L320.8914587194585,469.59980811154117 M320.8914587194585,469.59980811154117 L331.1296056932579,463.9576803181111 M331.1296056932579,463.9576803181111 L341.7481411727532,458.60368093846785 M341.7481411727532,458.60368093846785 L352.7253485828204,453.5474811783031 M352.7253485828204,453.5474811783031 L364.03888904344984,448.79821644810534 M364.03888904344984,448.79821644810534 L375.6660446569959,444.3643475647932 M375.6660446569959,444.3643475647932 L387.58347232917214,440.2538377463711 M387.58347232917214,440.2538377463711 L399.76759558974874,436.47393180191773 M399.76759558974874,436.47393180191773 L412.19430789124044,433.0313461421131 M412.19430789124044,433.0313461421131 L424.8392670252149,429.9321213966987 M424.8392670252149,429.9321213966987 L437.67780871594323,427.18167896540376 M437.67780871594323,427.18167896540376 L450.6849582186062,424.78484978289805 M450.6849582186062,424.78484978289805 L463.8355602212241,422.7458014817805 M463.8355602212241,422.7458014817805 L477.10420217587796,421.0680995244961 M477.10420217587796,421.0680995244961 L490.4654164163348,419.75463491459766 M490.4654164163348,419.75463491459766 L503.89357158700767,418.8076644345671 M503.89357158700767,418.8076644345671 L517.3628692236778,418.2288706473803 M517.3628692236778,418.2288706473803 L530.8475809157059,418.0192226477833 M530.8475809157059,418.0192226477833 L544.321908896203,418.17910220314366 M544.321908896203,418.17910220314366 L557.760061626849,418.7082147370852 M557.760061626849,418.7082147370852 L571.1363150726713,419.6056626765875 M571.1363150726713,419.6056626765875 L584.4250521320862,420.8698749412158 M584.4250521320862,420.8698749412158 L597.6007455568731,422.49867243355664 M597.6007455568731,422.49867243355664 L610.6380323924869,424.48923722411473 M610.6380323924869,424.48923722411473 L623.5117709451836,426.838090986442 M623.5117709451836,426.838090986442 L636.1969910663767,429.541156889366 M636.1969910663767,429.541156889366 L648.6690862985076,432.59370925527594 M648.6690862985076,432.59370925527594 L660.9036348487145,435.9903749269623 M660.9036348487145,435.9903749269623 L672.8766366357884,439.72521331637654 M672.8766366357884,439.72521331637654 L684.5644447667539,443.79160971995793 M684.5644447667539,443.79160971995793 L695.9437668949377,448.18235883438933 M695.9437668949377,448.18235883438933 L706.9918647437422,452.88963063551273 M706.9918647437422,452.88963063551273 L717.6864360524742,457.9049993919476 M717.6864360524742,457.9049993919476 L728.00565804227,463.2194401420994 M739.523508201334,226.8182666491379 L761.8364845206206,213.87815983248328 M728.3295402382429,220.34098413085712 L739.523508201334,226.8182666491379 M739.5110009745596,239.70784222899437 L739.523508201334,226.8182666491379 M728.00565804227,463.2194401420994 L728.0060346616491,476.3591311348059 M728.3295402382429,463.02417454802674 L728.3295402382429,476.16366784578554 M728.3295402382429,233.22340313363594 L728.3295402382429,220.34098413085712" stroke="black"  stroke-width="4"  fill="red"/></svg>