<svg viewBox="0 0 800 800" xmlns="http://www.w3.org/2000/svg"><path d="M735.3758715121652,178.64159137230075 L704.2508209969787,196.61164766578435 M704.216093602625,183.46202621547104 L704.2508209969787,196.61164766578435 M735.3758715121652,165.51194253463245 L704.216093602625,183.46202621547104 M735.3758715121652,178.64159137230075 L735.3758715121652,165.51194253463245 M746.79729931455,211.61241345348458 L769.5637574089358,198.37997649782557 M743.7344355406744,209.83617383082338 L746.79729931455,211.61241345348458 M704.2508209969787,196.61164766578435 L705.5940523620534,198.92393576475558 M705.5940523620534,198.92393576475558 L707.4486840654624,201.11565613437733 M707.4486840654624,201.11565613437733 L709.7833976094427,203.14899958135925 M709.7833976094427,203.14899958135925 L712.5585101658829,204.9888108032468 M712.5585101658829,204.9888108032468 L715.726629603331,206.6032229897558 M715.726629603331,206.6032229897558 L719.233463625267,207.96422173638337 M719.233463625267,207.96422173638337 L723.0187495631835,209.04815904779838 M723.0187495631835,209.04815904779838 L727.0173074836559,209.83617383082338 M727.0173074836559,209.83617383082338 L731.1601861336922,210.31454281320026 M731.1601861336922,210.31454281320026 L735.3758715121652,210.4749311997429 M735.3758715121652,210.4749311997429 L739.5915568906382,210.31454281320026 M739.5915568906382,210.31454281320026 L743.7344355406744,209.83617383082338 M769.5637574089358,198.37997649782557 L735.3758715121652,178.64159137230075 M743.7437823634435,196.6719317997896 L743.7344355406744,209.83617383082338 M704.216093602625,183.46202621547104 L705.5608106678501,185.77175317789977 M705.5608106678501,185.77175317789977 L707.4175009137571,187.96104781270662 M707.4175009137571,187.96104781270662 L709.7548115509737,189.99214242944174 M709.7548115509737,189.99214242944174 L712.5330159073956,191.82992020477434 M712.5330159073956,191.82992020477434 L715.7046691575349,193.44254911631572 M715.7046691575349,193.44254911631572 L719.2154183525843,194.80204527012143 M719.2154183525843,194.80204527012143 L723.0049332580609,195.8847863737036 M723.0049332580609,195.8847863737036 L727.0079606608867,196.6719317997896 M727.0079606608867,196.6719317997896 L731.1554716343422,197.14977314800637 M731.1554716343422,197.14977314800637 L735.3758715121652,197.3099846477358 M735.3758715121652,197.3099846477358 L739.596271389988,197.14977314800637 M739.596271389988,197.14977314800637 L743.7437823634435,196.6719317997896 M746.8100749608614,198.44621268952187 L769.6019135315885,185.22839623003728 M743.7437823634435,196.6719317997896 L746.8100749608614,198.44621268952187 M769.6019135315885,185.22839623003728 L735.3758715121652,165.51194253463245 M769.6019135315885,185.22839623003728 L769.5637574089358,198.37997649782557 M746.79729931455,211.61241345348458 L746.8100749608614,198.44621268952187 M46.15802179164439,576.5617024387385 L31.23535224637328,585.1773097177287 M31.23535224637328,585.1773097177287 L30.398086468411577,571.6255634790623 M45.33962056745747,563.0182560657491 L30.398086468411577,571.6255634790623 M46.15802179164439,576.5617024387385 L45.33962056745747,563.0182560657491 M46.15802179164439,576.5617024387385 L105.63583762322708,634.4880574653675 M31.23535224637328,585.1773097177287 L105.63583762322708,634.4880574653675 M104.88117831575914,620.8893454917613 L105.63583762322708,634.4880574653675 M30.398086468411577,571.6255634790623 L104.88117831575914,620.8893454917613 M45.33962056745747,563.0182560657491 L104.88117831575914,620.8893454917613 M453.5649454200311,547.2496649058137 L451.45720957935134,545.6925046798372 M451.45720957935134,545.6925046798372 L448.88395552812926,544.4264157476372 M448.88395552812926,544.4264157476372 L445.9439237055781,543.4997360810722 M445.9439237055781,543.4997360810722 L442.7497941498531,542.9477060841884 M442.7497941498531,542.9477060841884 L439.423724900243,542.7913883911375 M439.423724900243,542.7913883911375 L436.09291760846713,543.0367020351374 M436.09291760846713,543.0367020351374 L432.8848286665796,543.6743095673789 M432.8848286665796,543.6743095673789 L429.9221173008602,544.6799605320219 M429.9221173008602,544.6799605320219 L427.31836065530524,546.0153053057932 M427.31836065530524,546.0153053057932 L425.17347635225417,547.6294570379717 M425.17347635225417,547.6294570379717 L423.5700484118431,549.4607248006096 M423.5700484118431,549.4607248006096 L422.57004901208705,551.4390487821013 M422.57004901208705,551.4390487821013 L422.2123902710666,553.4886297610301 M422.2123902710666,553.4886297610301 L422.51152037572626,555.5307508009529 M422.51152037572626,555.5307508009529 L423.45648794553944,557.4868427886654 M423.45648794553944,557.4868427886654 L425.01152135535574,559.2815130681323 M425.01152135535574,559.2815130681323 L427.11726191067294,560.8454437443282 M427.11726191067294,560.8454437443282 L429.6928319959885,562.1181641946274 M429.6928319959885,562.1181641946274 L432.6391897945026,563.0503588565138 M432.6391897945026,563.0503588565138 L435.8426739798154,563.6059367029209 M435.8426739798154,563.6059367029209 L439.17972054368806,563.7633060202268 M439.17972054368806,563.7633060202268 L442.52140552975453,563.5163555238768 M442.52140552975453,563.5163555238768 L445.73868529580443,562.8747155569724 M445.73868529580443,562.8747155569724 L448.7074506081782,561.8632180085117 M448.7074506081782,561.8632180085117 L451.3132025534171,560.5211027913756 M451.3132025534171,560.5211027913756 L453.4557707501446,558.9003195788636 M453.4557707501446,558.9003195788636 L455.0528727912857,557.0635367468727 M455.0528727912857,557.0635367468727 L456.043555425164,555.0816423760155 M456.043555425164,555.0816423760155 L456.39019901982647,553.031032379942 M456.39019901982647,553.031032379942 L456.0802291723456,550.99052549845 M456.0802291723456,550.99052549845 L455.1260507547688,549.0384999316535 M455.1260507547688,549.0384999316535 L453.5649454200311,547.2496649058137 M453.5649454200311,547.2496649058137 L453.2318721930598,533.7346657026449 M453.2318721930598,533.7346657026449 L454.7947279976287,535.5217554028274 M454.7947279976287,535.5217554028274 L455.7499315991134,537.4718777977249 M455.7499315991134,537.4718777977249 L456.06016059079286,539.5103967745304 M456.06016059079286,539.5103967745304 L455.71299882366645,541.5590106030065 M455.71299882366645,541.5590106030065 L454.72103899115933,543.5389772024811 M454.72103899115933,543.5389772024811 L453.12194865157954,545.3739747326176 M453.12194865157954,545.3739747326176 L450.97675655159674,546.9931836441668 M450.97675655159674,546.9931836441668 L448.3678457277712,548.3339959852623 M448.3678457277712,548.3339959852623 L445.39550814819074,549.3445120574411 M445.39550814819074,549.3445120574411 L442.174380921713,549.9855296280062 M442.174380921713,549.9855296280062 L438.8287223258632,550.2322406215521 M438.8287223258632,550.2322406215521 L435.4877301921643,550.0750239248636 M435.4877301921643,550.0750239248636 L432.2804816511902,549.5199849660438 M432.2804816511902,549.5199849660438 L429.3306865326995,548.588694755679 M429.3306865326995,548.588694755679 L426.7521391836081,547.3172096767023 M426.7521391836081,547.3172096767023 L424.64399604344106,545.7547978716206 M424.64399604344106,545.7547978716206 L423.087226844178,543.9618716898979 M423.087226844178,543.9618716898979 L422.1412560794666,542.0076820544651 M422.1412560794666,542.0076820544651 L421.8418926498433,539.9675485698909 M421.8418926498433,539.9675485698909 L422.2000955177192,537.9199639861087 M422.2000955177192,537.9199639861087 L423.2013940185251,535.9435684923758 M423.2013940185251,535.9435684923758 L424.80682492530286,534.1140871794853 M424.80682492530286,534.1140871794853 L426.95433826520906,532.5015111419197 M426.95433826520906,532.5015111419197 L429.5612486656267,531.1674706400304 M429.5612486656267,531.1674706400304 L432.52751763893207,530.1628023686051 M432.52751763893207,530.1628023686051 L435.7394320777909,529.5258180854155 M435.7394320777909,529.5258180854155 L439.0741871138583,529.2807442715516 M439.0741871138583,529.2807442715516 L442.40417602473883,529.4369091384668 M442.40417602473883,529.4369091384668 L445.60204798769735,529.9883995092893 M445.60204798769735,529.9883995092893 L448.545502462135,530.9141735764131 M448.545502462135,530.9141735764131 L451.12172864377135,532.1790257436118 M451.12172864377135,532.1790257436118 L453.2318721930598,533.7346657026449" stroke="black"  stroke-width="4"  fill="red"/></svg>