<svg viewBox="0 0 800 800" xmlns="http://www.w3.org/2000/svg"><path d="M156.57223521612906,512.5510283247881 L92.58197013825793,549.4958250930126 M92.58197013825793,549.4958250930126 L92.51077095597378,253.64970287781253 M156.57223521612906,216.74608156429952 L92.51077095597378,253.64970287781253 M156.57223521612906,512.5510283247881 L156.57223521612906,216.74608156429952 M156.57223521612906,512.5510283247881 L115.48498900131119,559.10755092668 M115.48498900131119,559.10755092668 L598.4843303358558,701.256391021049 M477.05785171384423,771.596468063691 L598.4843303358558,701.256391021049 M92.58197013825793,549.4958250930126 L477.05785171384423,771.596468063691 M477.05785171384423,771.596468063691 L477.4150382465807,475.5032925853512 M92.51077095597378,253.64970287781253 L477.4150382465807,475.5032925853512 M156.57223521612906,216.74608156429952 L115.43926970360997,263.2507200579029 M115.43926970360997,263.2507200579029 L598.9765883595991,405.24136900083016 M477.4150382465807,475.5032925853512 L598.9765883595991,405.24136900083016 M115.48498900131119,559.10755092668 L115.43926970360997,263.2507200579029 M598.9765883595991,405.24136900083016 L598.4843303358558,701.256391021049" stroke="black"  stroke-width="4"  fill="red"/>
<path d="M605.0024850372159,697.4805465011995 L603.9661091723273,696.8825268497641 M601.8252081680389,699.3210832795031 L605.0024850372159,697.4805465011995 M601.8252081680389,699.3210832795031 L603.9661091723273,696.8825268497641 M604.4644571114153,400.87236727368 L603.9661091723273,696.8825268497641 M605.5019896318371,401.4697220851561 L604.4644571114153,400.87236727368 M605.0024850372159,697.4805465011995 L605.5019896318371,401.4697220851561 M602.3211804705605,403.30821271001884 L605.5019896318371,401.4697220851561 M601.8252081680389,699.3210832795031 L602.3211804705605,403.30821271001884 M602.3211804705605,403.30821271001884 L604.4644571114153,400.87236727368" stroke="black"  stroke-width="4"  fill="red"/>
<path d="M156.57223521612906,512.5510283247881 L115.48498900131119,559.10755092668 M115.48498900131119,559.10755092668 L115.43926970360997,263.2507200579029 M156.57223521612906,216.74608156429952 L115.43926970360997,263.2507200579029 M156.57223521612906,512.5510283247881 L156.57223521612906,216.74608156429952 M156.57223521612906,512.5510283247881 L142.41399610787045,564.1612932200582 M142.41399610787045,564.1612932200582 L677.5118984946024,613.111884623294 M599.7890138387766,701.6403628385034 L677.5118984946024,613.111884623294 M115.48498900131119,559.10755092668 L599.7890138387766,701.6403628385034 M599.7890138387766,701.6403628385034 L600.282726610614,405.6249139703839 M115.43926970360997,263.2507200579029 L600.282726610614,405.6249139703839 M156.57223521612906,216.74608156429952 L142.3982411125852,268.2988324754939 M142.3982411125852,268.2988324754939 L678.0918029309605,317.1949149439661 M600.282726610614,405.6249139703839 L678.0918029309605,317.1949149439661 M142.41399610787045,564.1612932200582 L142.3982411125852,268.2988324754939 M678.0918029309605,317.1949149439661 L677.5118984946024,613.111884623294" stroke="black"  stroke-width="4"  fill="red"/>
<path d="M681.6834413938716,608.3603730153463 L680.3794419776468,607.9769354605279 M679.6500342369029,610.6764813207708 L681.6834413938716,608.3603730153463 M679.6500342369029,610.6764813207708 L680.3794419776468,607.9769354605279 M680.9625160059668,312.06568192410293 L680.3794419776468,607.9769354605279 M682.2679686505522,312.44869262717145 L680.9625160059668,312.06568192410293 M681.6834413938716,608.3603730153463 L682.2679686505522,312.44869262717145 M680.2323081539444,314.7622226383294 L682.2679686505522,312.44869262717145 M679.6500342369029,610.6764813207708 L680.2323081539444,314.7622226383294 M680.2323081539444,314.7622226383294 L680.9625160059668,312.06568192410293" stroke="black"  stroke-width="4"  fill="red"/>
<path d="M156.57223521612906,512.5510283247881 L142.41399610787045,564.1612932200582 M142.41399610787045,564.1612932200582 L142.3982411125852,268.2988324754939 M156.57223521612906,216.74608156429952 L142.3982411125852,268.2988324754939 M156.57223521612906,512.5510283247881 L156.57223521612906,216.74608156429952 M156.57223521612906,512.5510283247881 L170.73047432438761,564.1612932200582 M170.73047432438761,564.1612932200582 L705.4348162826141,515.2467105350926 M678.9562961626078,613.2440175964367 L705.4348162826141,515.2467105350926 M142.41399610787045,564.1612932200582 L678.9562961626078,613.2440175964367 M678.9562961626078,613.2440175964367 L679.5378090650142,317.32690083462194 M142.3982411125852,268.2988324754939 L679.5378090650142,317.32690083462194 M156.57223521612906,216.74608156429952 L170.74622931967286,268.2988324754939 M170.74622931967286,268.2988324754939 L706.0453543481688,219.4387586303458 M679.5378090650142,317.32690083462194 L706.0453543481688,219.4387586303458 M170.73047432438761,564.1612932200582 L170.74622931967286,268.2988324754939 M706.0453543481688,219.4387586303458 L705.4348162826141,515.2467105350926" stroke="black"  stroke-width="4"  fill="red"/>
<path d="M706.8558667251621,509.98738339914144 L705.4125622062415,509.855455413095 M706.1631903481147,512.5510283247884 L706.8558667251621,509.98738339914144 M706.1631903481147,512.5510283247884 L705.4125622062415,509.855455413095 M706.0230507357483,214.05351379645853 L705.4125622062415,509.855455413095 M707.4679612856237,214.18529470052732 L706.0230507357483,214.05351379645853 M706.8558667251621,509.98738339914144 L707.4679612856237,214.18529470052732 M706.7745262270156,216.7460815642997 L707.4679612856237,214.18529470052732 M706.1631903481147,512.5510283247884 L706.7745262270156,216.7460815642997 M706.7745262270156,216.7460815642997 L706.0230507357483,214.05351379645853" stroke="black"  stroke-width="4"  fill="red"/>
<path d="M156.57223521612906,512.5510283247881 L170.73047432438761,564.1612932200582 M170.73047432438761,564.1612932200582 L170.74622931967286,268.2988324754939 M156.57223521612906,216.74608156429952 L170.74622931967286,268.2988324754939 M156.57223521612906,512.5510283247881 L156.57223521612906,216.74608156429952 M156.57223521612906,512.5510283247881 L197.65948143094693,559.10755092668 M197.65948143094693,559.10755092668 L679.6286671358031,417.26189550107193 M706.8770872481356,515.1147721119729 L679.6286671358031,417.26189550107193 M170.73047432438761,564.1612932200582 L706.8770872481356,515.1147721119729 M706.8770872481356,515.1147721119729 L707.4892290440263,219.30696728924255 M170.74622931967286,268.2988324754939 L707.4892290440263,219.30696728924255 M156.57223521612906,216.74608156429952 L197.70520072864815,263.2507200579029 M197.70520072864815,263.2507200579029 L680.2100699899515,121.5632550086006 M707.4892290440263,219.30696728924255 L680.2100699899515,121.5632550086006 M197.65948143094693,559.10755092668 L197.70520072864815,263.2507200579029 M680.2100699899515,121.5632550086006 L679.6286671358031,417.26189550107193" stroke="black"  stroke-width="4"  fill="red"/>
<path d="M678.1662968028126,412.0103166645898 L676.7251157296228,412.1420505529997 M678.879126688877,414.570191774982 L678.1662968028126,412.0103166645898 M678.879126688877,414.570191774982 L676.7251157296228,412.1420505529997 M677.3032688405007,116.44912614736018 L676.7251157296228,412.1420505529997 M678.7460512198127,116.31753933995583 L677.3032688405007,116.44912614736018 M678.1662968028126,412.0103166645898 L678.7460512198127,116.31753933995583 M679.4596846176495,118.87455639941436 L678.7460512198127,116.31753933995583 M678.879126688877,414.570191774982 L679.4596846176495,118.87455639941436 M679.4596846176495,118.87455639941436 L677.3032688405007,116.44912614736018" stroke="black"  stroke-width="4"  fill="red"/>
<path d="M115.51374168670367,466.02708578534083 L115.46808639051619,170.27402301212425 M197.65948143094693,559.10755092668 L197.70520072864815,263.2507200579029 M115.51374168670367,466.02708578534083 L197.65948143094693,559.10755092668 M115.46808639051619,170.27402301212425 L197.70520072864815,263.2507200579029 M680.927777625506,416.8795585254946 L681.5106228255871,121.18134488068733 M197.65948143094693,559.10755092668 L680.927777625506,416.8795585254946 M197.70520072864815,263.2507200579029 L681.5106228255871,121.18134488068733 M598.5319867947579,323.9979785788969 L599.0229015049464,28.40353193630898 M680.927777625506,416.8795585254946 L598.5319867947579,323.9979785788969 M681.5106228255871,121.18134488068733 L599.0229015049464,28.40353193630898 M598.5319867947579,323.9979785788969 L115.51374168670367,466.02708578534083 M599.0229015049464,28.40353193630898 L115.46808639051619,170.27402301212425" stroke="black"  stroke-width="4"  fill="red"/></svg>