<svg viewBox="0 0 800 800" xmlns="http://www.w3.org/2000/svg"><path d="M720.3600043234311,482.82239546143967 L720.2775854805814,499.3564441852883 M751.09339265978,422.74033549242745 L747.9352445341053,433.03606428678347 M747.9352445341053,433.03606428678347 L743.9816664347608,443.2506841210338 M743.9816664347608,443.2506841210338 L739.2384782083456,453.36037596846995 M739.2384782083456,453.36037596846995 L733.7136679867185,463.34131062367476 M733.7136679867185,463.34131062367476 L727.4169278778606,473.16980007262305 M727.4169278778606,473.16980007262305 L720.3600043234311,482.82239546143967 M751.09339265978,422.74033549242745 L750.9748895233947,439.2179812814834 M720.2775854805814,499.3564441852883 L727.3261240772617,489.6948630857413 M727.3261240772617,489.6948630857413 L733.615415795925,479.85719436594616 M733.615415795925,479.85719436594616 L739.1337250016124,469.8669072730836 M739.1337250016124,469.8669072730836 L743.8713676602166,459.7477107071694 M743.8713676602166,459.7477107071694 L747.8203614429317,449.5234551738117 M747.8203614429317,449.5234551738117 L750.9748895233947,439.2179812814834 M720.2775854805814,499.3564441852883 L701.4645828710466,493.3750763112205 M701.4645828710466,493.3750763112205 L701.5242729691128,476.8465871135206 M720.3600043234311,482.82239546143967 L701.5242729691128,476.8465871135206 M695.647840824786,290.0404909167278 L700.3619635171248,295.63485041188255 M700.3619635171248,295.63485041188255 L718.6544585032755,289.94447489048423 M718.6544585032755,289.94447489048423 L725.7173005905618,299.1446400937158 M725.7173005905618,299.1446400937158 L732.0737930280945,308.55927081753305 M732.0737930280945,308.55927081753305 L737.7074742473903,318.1685818411769 M737.7074742473903,318.1685818411769 L742.6032170738756,327.95229305543614 M742.6032170738756,327.95229305543614 L746.7472967685209,337.8894776322911 M746.7472967685209,337.8894776322911 L750.1276681032682,347.95883499355125 M750.1276681032682,347.95883499355125 L729.6739959114957,349.9488806550604 M729.6739959114957,349.9488806550604 L731.3645137856752,356.24963278547216 M731.3645137856752,356.24963278547216 L751.83474782345,354.2563033163824 M751.83474782345,354.2563033163824 L753.9564358433365,364.49323211030605 M753.9564358433365,364.49323211030605 L755.2903023352612,374.8042799650116 M755.2903023352612,374.8042799650116 L755.8301060999493,385.1666425273298 M755.8301060999493,385.1666425273298 L755.5713938002625,395.55718292292363 M755.5713938002625,395.55718292292363 L754.511492396802,405.95251110608115 M754.511492396802,405.95251110608115 L752.649592184274,416.3290659650046 M752.649592184274,416.3290659650046 L731.970339036191,414.3041702969515 M731.970339036191,414.3041702969515 L730.3972765522441,420.71199912521854 M730.3972765522441,420.71199912521854 L751.09339265978,422.74033549242745 M701.5242729691128,476.8465871135206 L696.7642527085653,482.7214115763355 M696.7642527085653,482.7214115763355 L715.6106677827984,488.70627705387847 M715.6106677827984,488.70627705387847 L707.352207347931,498.02481079946585 M707.352207347931,498.02481079946585 L698.373462362145,507.10729257822425 M698.373462362145,507.10729257822425 L688.6929912127505,515.9314470443707 M688.6929912127505,515.9314470443707 L678.3313414286782,524.4755479442285 M678.3313414286782,524.4755479442285 L667.3108828727774,532.7183247586488 M667.3108828727774,532.7183247586488 L655.6558217749616,540.6392153279335 M655.6558217749616,540.6392153279335 L640.6403104051265,531.1962512117702 M640.6403104051265,531.1962512117702 L633.1095928572474,535.9235627726223 M633.1095928572474,535.9235627726223 L648.1250931341343,545.3780007116 M648.1250931341343,545.3780007116 L635.4977336489167,552.7355551868309 M635.4977336489167,552.7355551868309 L622.3072021978419,559.7207084264539 M622.3072021978419,559.7207084264539 L608.5836741171695,566.3156245863613 M608.5836741171695,566.3156245863613 L594.3589881870059,572.5034041056333 M594.3589881870059,572.5034041056333 L579.6662692350367,578.2681080357354 M579.6662692350367,578.2681080357354 L564.5400988998339,583.5948984973563 M564.5400988998339,583.5948984973563 L554.9865662474167,571.5685108254731 M554.9865662474167,571.5685108254731 L545.4208518965911,574.634556127249 M545.4208518965911,574.634556127249 L554.9634777892313,586.6703438053946 M554.9634777892313,586.6703438053946 L539.2117573450984,591.2589022592915 M539.2117573450984,591.2589022592915 L523.1229046282685,595.3757063742491 M523.1229046282685,595.3757063742491 L506.73555761596435,599.0099618908105 M506.73555761596435,599.0099618908105 L490.08933531334617,602.152188919252 M490.08933531334617,602.152188919252 L473.22467160196686,604.7940329759822 M473.22467160196686,604.7940329759822 L456.18254336351197,606.9286023885891 M456.18254336351197,606.9286023885891 L453.1687592672036,593.5200802080083 M453.1687592672036,593.5200802080083 L442.55345340642805,594.5822271940237 M442.55345340642805,594.5822271940237 L445.54942019670483,607.9943809455888 M445.54942019670483,607.9943809455888 L428.3081820074629,609.295835727333 M428.3081820074629,609.295835727333 L410.99921463869,610.0781099237847 M410.99921463869,610.0781099237847 L393.66488291606333,610.3390987303824 M393.66488291606333,610.3390987303824 L376.3476855966585,610.0781099237847 M376.3476855966585,610.0781099237847 L359.09007599179427,609.295835727333 M359.09007599179427,609.295835727333 L341.934233237003,607.9944103527948 M341.934233237003,607.9944103527948 L345.8107805085933,594.5822271940237 M345.8107805085933,594.5822271940237 L335.2652065837442,593.5200802080083 M335.2652065837442,593.5200802080083 L331.3711279313377,606.9286023885891 M331.3711279313377,606.9286023885891 L314.4690905775174,604.794062359261 M314.4690905775174,604.794062359261 L297.777916458017,602.152188919252 M297.777916458017,602.152188919252 L281.3379395581853,599.0099912308701 M281.3379395581853,599.0099912308701 L265.18923589470535,595.3757063742491 M265.18923589470535,595.3757063742491 L249.37065906675528,591.2589022592913 M249.37065906675528,591.2589022592913 L233.9201860660695,586.6703438053946 M233.9201860660695,586.6703438053946 L244.25303159557643,574.6345269689771 M244.25303159557643,574.6345269689771 L234.88856118457724,571.5685108254731 M234.88856118457724,571.5685108254731 L224.54542589528776,583.5949277223872 M224.54542589528776,583.5949277223872 L209.76901711135386,578.2681080357354 M209.76901711135386,578.2681080357354 L195.454761752825,572.5034041056333 M195.454761752825,572.5034041056333 L181.6362450934448,566.315639134541 M181.6362450934448,566.315639134541 L168.3458034771971,559.7206793791283 M168.3458034771971,559.7206793791283 L155.61381253979516,552.7355551868309 M155.61381253979516,552.7355551868309 L143.46949026505575,545.3780007116 M143.46949026505575,545.3780007116 L159.10569207314512,535.9235627726223 M159.10569207314512,535.9235627726223 L151.88533136966342,531.1962512117702 M151.88533136966342,531.1962512117702 L136.24987174655053,540.6392153279335 M136.24987174655053,540.6392153279335 L125.11483192726826,532.7183247586488 M125.11483192726826,532.7183247586488 L114.63557492601029,524.4755191582562 M114.63557492601029,524.4755191582562 L104.83478756744228,515.9314901285608 M104.83478756744228,515.9314901285608 L95.73366459509839,507.107292578224 M95.73366459509839,507.107292578224 L87.35120152301067,498.02481079946574 M87.35120152301067,498.02481079946574 L79.70447250402412,488.7063055758184 M79.70447250402412,488.7063055758184 L98.94383115291527,482.7213973373948 M98.94383115291527,482.7213973373948 L94.56959527717476,476.8465728961877 M94.56959527717476,476.8465728961877 L75.34147154411005,482.82239546143956 M75.34147154411005,482.82239546143956 L68.91825892803416,473.16980007262305 M68.91825892803416,473.16980007262305 L63.26675586457293,463.34129645595226 M63.26675586457293,463.34129645595226 L58.39716509401694,453.3603900995838 M58.39716509401694,453.3603900995838 L54.31778787852602,443.2506982151152 M54.31778787852602,443.2506982151152 L51.03474956673796,433.03609240021194 M51.03474956673796,433.03609240021194 L48.55257203962202,422.7403284828772 M48.55257203962202,422.7403284828772 L69.3818737651053,420.7120061310666 M69.3818737651053,420.7120061310666 L68.22947567843948,414.30416330279263 M68.22947567843948,414.30416330279263 L47.41726919585585,416.32910795211365 M47.41726919585585,416.32910795211365 L46.23663513112302,405.95251110608115 M46.23663513112302,405.95251110608115 L45.85921718545222,395.55718988293984 M45.85921718545222,395.55718988293984 L46.282663279652866,385.1666494684587 M46.282663279652866,385.1666494684587 L47.50277551153965,374.8042868873298 M47.50277551153965,374.8042868873298 L49.5135602003196,364.4932252066799 M49.5135602003196,364.4932252066799 L52.30733242165866,354.2563033163824 M52.30733242165866,354.2563033163824 L72.6466899604286,356.2496258967724 M72.6466899604286,356.2496258967724 L74.75087468653243,349.9488806550603 M74.75087468653243,349.9488806550603 L54.42784205039948,347.95882811984677 M54.42784205039948,347.95882811984677 L58.469306843043,337.8894844878055 M58.469306843043,337.8894844878055 L63.26578127882527,327.95229989302265 M63.26578127882527,327.95229989302265 L68.80384303405822,318.1685886611358 M68.80384303405822,318.1685886611358 L75.06837754400135,308.5592674161994 M75.06837754400135,308.5592674161994 L82.04297402798886,299.14464687946304 M82.04297402798886,299.14464687946304 L89.70981885287694,289.9444782751008 M89.70981885287694,289.9444782751008 L107.62872473768198,295.63485041188255 M107.62872473768198,295.63485041188255 L112.71013291006886,290.0404943014303 M112.71013291006886,290.0404943014303 L94.80062301076845,284.35857613018186 M94.80062301076845,284.35857613018186 L103.54759249488666,275.54615488188176 M103.54759249488666,275.54615488188176 L112.9339679273649,266.9970648370323 M112.9339679273649,266.9970648370323 L122.93746333247651,258.7287536967809 M122.93746333247651,258.7287536967809 L133.53465597002605,250.75797473626915 M133.53465597002605,250.75797473626915 L144.70100575332793,243.1008136800723 M144.70100575332793,243.1008136800723 L156.41103990022742,235.77259867387397 M156.41103990022742,235.77259867387397 L170.29148867359442,244.51235686194855 M170.29148867359442,244.51235686194855 L177.81102501336818,240.13188275850132 M177.81102501336818,240.13188275850132 L163.92991658414522,231.4023226681901 M163.92991658414522,231.4023226681901 L176.46417089744216,224.63748946133148 M176.46417089744216,224.63748946133148 L189.4711013442776,218.23813003370026 M189.4711013442776,218.23813003370026 L202.9221186004949,212.21676907367635 M202.9221186004949,212.21676907367635 L216.78786875736782,206.585162237379 M216.78786875736782,206.585162237379 L231.0384094816886,201.35421278578576 M231.0384094816886,201.35421278578576 L245.64318462401388,196.53398387752304 M245.64318462401388,196.53398387752304 L254.28597394055626,207.43491356798506 M254.28597394055626,207.43491356798506 L263.5120046290503,204.6495986512018 M263.5120046290503,204.6495986512018 L254.85891654666102,193.7568197954115 M254.85891654666102,193.7568197954115 L269.9711230897325,189.62117519027004 M269.9711230897325,189.62117519027004 L285.3549087753137,185.91873321302182 M285.3549087753137,185.91873321302182 L300.9779483716911,182.65652993890376 M300.9779483716911,182.65652993890376 L316.8075673811783,179.84073184322403 M316.8075673811783,179.84073184322403 L332.8106627113416,177.4767234322194 M332.8106627113416,177.4767234322194 L348.95403976855664,175.5689107345811 M348.95403976855664,175.5689107345811 L351.6385796042638,187.5866299234326 M351.6385796042638,187.5866299234326 L361.71539660313425,186.6317565341318 M361.71539660313425,186.6317565341318 L359.0149806571902,174.61709126814242 M359.0149806571902,174.61709126814242 L375.3144710950415,173.4554770312161 M375.3144710950415,173.4554770312161 L391.6662603504493,172.75763438606396 M391.6662603504493,172.75763438606396 L408.03655529252205,172.524869985264 M408.03655529252205,172.524869985264 L424.39156881708124,172.75763438606396 M424.39156881708124,172.75763438606396 L440.69751037374397,173.45548359309373 M440.69751037374397,173.45548359309373 L456.92077134972635,174.61710439600154 M456.92077134972635,174.61710439600154 L453.43152667682756,186.6317565341318 M453.43152667682756,186.6317565341318 L463.44568718448704,187.58663651029258 M463.44568718448704,187.58663651029258 L466.91918005909315,175.5689107345811 M466.91918005909315,175.5689107345811 L482.9373386460139,177.47671686323758 M482.9373386460139,177.47671686323758 L498.785254033826,179.84073841638428 M498.785254033826,179.84073841638428 L514.4299673047215,182.65651020448774 M514.4299673047215,182.65651020448774 L529.8388205007252,185.91872333715855 M529.8388205007252,185.91872333715855 L544.9795722618967,189.6211685998096 M544.9795722618967,189.6211685998096 L559.8202604666806,193.75681649652006 M559.8202604666806,193.75681649652006 L550.4520573581085,204.6496118853786 M550.4520573581085,204.6496118853786 L559.4951888186515,207.4348970129115 M559.4951888186515,207.4348970129115 L568.8536553177764,196.5339871788741 M568.8536553177764,196.5339871788741 L583.141984469441,201.35420948016326 M583.141984469441,201.35420948016326 L597.0490980556974,206.585162237379 M597.0490980556974,206.585162237379 L610.545139105873,212.21678564996762 M610.545139105873,212.21678564996762 L623.600831859867,218.23812671309474 M623.600831859867,218.23812671309474 L636.1876213562023,224.63749278762475 M636.1876213562023,224.63749278762475 L648.2777517191138,231.40232600050126 M648.2777517191138,231.40232600050126 L633.8235368625994,240.13188275850132 M633.8235368625994,240.13188275850132 L641.0554868856664,244.51235686194877 M641.0554868856664,244.51235686194877 L655.5097116105143,235.77260201007584 M655.5097116105143,235.77260201007584 L666.738634737553,243.1008170228033 M666.738634737553,243.1008170228033 L677.4022886148493,250.75797138670953 M677.4022886148493,250.75797138670953 L687.4761514608157,258.7287436267536 M687.4761514608157,258.7287436267536 L696.9368445052397,266.9970648370323 M696.9368445052397,266.9970648370323 L705.7619617131984,275.5461515101673 M705.7619617131984,275.5461515101673 L713.9303682109442,284.35857950979016 M713.9303682109442,284.35857950979016 L695.647840824786,290.0404909167278 M416.0937646997184,376.0795840400301 L418.62656784364907,378.0251534921331 M418.62656784364907,378.0251534921331 L420.4859656233996,380.2460674841625 M420.4859656233996,380.2460674841625 L421.6000892933054,382.6573740351232 M421.6000892933054,382.6573740351232 L421.92544327879625,385.1666425273298 M421.92544327879625,385.1666425273298 L421.4487195622487,387.67757379540546 M421.4487195622487,387.67757379540546 L420.18757951111456,390.0935482376899 M420.18757951111456,390.0935482376899 L418.1897151400074,392.32148978646114 M418.1897151400074,392.32148978646114 L415.5316061615537,394.275362655839 M415.5316061615537,394.275362655839 L412.31518659557537,395.87959838297706 M412.31518659557537,395.87959838297706 L408.6642424453938,397.07212152186753 M408.6642424453938,397.07212152186753 L404.7195551225815,397.80662521869635 M404.7195551225815,397.80662521869635 L400.6333169687033,398.0546948079543 M400.6333169687033,398.0546948079543 L396.5633871367306,397.80663914691354 M396.5633871367306,397.80663914691354 L392.6668771854768,397.07210759632267 M392.6668771854768,397.07210759632267 L389.0942234632163,395.8796123041826 M389.0942234632163,395.8796123041826 L385.983147999274,394.275362655839 M385.983147999274,394.275362655839 L383.4532914025253,392.3215036947249 M383.4532914025253,392.3215036947249 L381.6017406265803,390.09356213785304 M381.6017406265803,390.09356213785304 L380.4991697445848,387.67755990402406 M380.4991697445848,387.67755990402406 L380.1873153924587,385.1666425273298 M380.1873153924587,385.1666425273298 L380.677430548992,382.65736016198014 M380.677430548992,382.65736016198014 L381.94981500884523,380.2460813485493 M381.94981500884523,380.2460813485493 L383.9550649473841,378.02516734845756 M383.9550649473841,378.02516734845756 L386.61557635470933,376.0795840400301 M386.61557635470933,376.0795840400301 L389.829049303764,374.48363781545356 M389.829049303764,374.48363781545356 L393.4721465242474,373.29814238178244 M393.4721465242474,373.29814238178244 L397.4052811493965,372.568334238988 M397.4052811493965,372.568334238988 L401.47801957021363,372.3219136839899 M401.47801957021363,372.3219136839899 L405.5345579878684,372.5683204024625 M405.5345579878684,372.5683204024625 L409.419823418605,373.298156220955 M409.419823418605,373.298156220955 L412.98509152363954,374.4836239719807 M412.98509152363954,374.4836239719807 L416.0937646997184,376.0795840400301 M730.30352793783,437.1877211633156 L750.9748895233947,439.2179812814834 M730.30352793783,437.1877211633156 L730.3972765522441,420.71199912521854 M701.4645828710466,493.3750763112205 L696.7102494397211,499.2553664433524 M696.7102494397211,499.2553664433524 L715.5339100283397,505.2457889136233 M715.5339100283397,505.2457889136233 L707.2853220130312,514.5729527797504 M707.2853220130312,514.5729527797504 L698.3173452071371,523.663820038545 M698.3173452071371,523.663820038545 L688.6485177426827,532.4960968745092 M688.6485177426827,532.4960968745092 L678.2993640814241,541.0480392534027 M678.2993640814241,541.0480392534027 L667.2922283853095,549.2983594536022 M667.2922283853095,549.2983594536022 L655.6512885120112,557.2264788959606 M655.6512885120112,557.2264788959606 L640.6539777314575,547.7748945725577 M640.6539777314575,547.7748945725577 L633.1323993787419,552.5065250301898 M633.1323993787419,552.5065250301898 L648.1296991066548,561.9695797132806 M564.6466924593115,600.221024542609 L579.7543506215492,594.8894460894355 M579.7543506215492,594.8894460894355 L594.4291065736013,589.1195505917535 M594.4291065736013,589.1195505917535 L608.636422704609,582.9261869747322 M608.636422704609,582.9261869747322 L622.3432160016488,576.325306172884 M622.3432160016488,576.325306172884 L635.5176874790387,569.333820576928 M635.5176874790387,569.333820576928 L648.1296991066548,561.9695797132806 M564.6466924593115,600.221024542609 L555.1046329755047,588.1838143915613 M555.1046329755047,588.1838143915613 L545.5506206721459,591.2526230886426 M545.5506206721459,591.2526230886426 L555.0818001731218,603.2992301940383 M456.42203167544926,623.5755978173099 L473.44324921132227,621.4391263182649 M473.44324921132227,621.4391263182649 L490.2872177832717,618.7949261843869 M490.2872177832717,618.7949261843869 L506.9130145204228,615.649893991719 M506.9130145204228,615.649893991719 L523.2802586706584,612.0123902266203 M523.2802586706584,612.0123902266203 L539.3493830933563,607.8919015985734 M539.3493830933563,607.8919015985734 L555.0818001731218,603.2992301940383 M456.42203167544926,623.5755978173099 L453.4115208903261,610.1551039403555 M453.4115208903261,610.1551039403555 L442.8092155344576,611.2182012983003 M442.8092155344576,611.2182012983003 L445.80195255358024,624.6423255442648 M342.3135582794534,624.6423549776559 L359.44846685181756,625.9449389066992 M359.44846685181756,625.9449389066992 L376.68498853178926,626.7279092452172 M376.68498853178926,626.7279092452172 L393.9809998672872,626.9891302621049 M393.9809998672872,626.9891302621049 L411.2941036855526,626.7279092452172 M411.2941036855526,626.7279092452172 L428.5818574875717,625.9449389066992 M428.5818574875717,625.9449389066992 L445.80195255358024,624.6423255442648 M342.3135582794534,624.6423549776559 L346.18472387614753,611.2182012983003 M346.18472387614753,611.2182012983003 L335.6519802021346,610.1551039403555 M335.6519802021346,610.1551039403555 L331.76332583172615,623.5755978173099 M234.43030151534182,603.2992301940383 L249.8622061869803,607.8919015985734 M249.8622061869803,607.8919015985734 L265.66171455157087,612.0123902266203 M265.66171455157087,612.0123902266203 L281.79089818910575,615.6499233579859 M281.79089818910575,615.6499233579859 L298.21095355671,618.7949261843869 M298.21095355671,618.7949261843869 L314.8818565712733,621.4391557277368 M314.8818565712733,621.4391557277368 L331.76332583172615,623.5755978173099 M234.43030151534182,603.2992301940383 L244.74977463460405,591.2525939041045 M244.74977463460405,591.2525939041045 L235.3965161763058,588.1838143915613 M235.3965161763058,588.1838143915613 L225.06677781773413,600.2210537938847 M144.0867268626078,561.9695797132806 L156.21687389312325,569.333820576928 M156.21687389312325,569.333820576928 L168.93391907909657,576.3252770992572 M168.93391907909657,576.3252770992572 L182.20867900239838,582.9262015360548 M182.20867900239838,582.9262015360548 L196.01081452287457,589.1195505917535 M196.01081452287457,589.1195505917535 L210.30802872679777,594.8894460894355 M210.30802872679777,594.8894460894355 L225.06677781773413,600.2210537938847 M144.0867268626078,561.9695797132806 L159.70322293629968,552.5065250301898 M159.70322293629968,552.5065250301898 L152.49124950367144,547.7748945725577 M152.49124950367144,547.7748945725577 L136.87549291773422,557.2264788959606 M80.39407778406371,505.24581746201966 L88.03240889235673,514.5729527797504 M88.03240889235673,514.5729527797504 L96.40554270356051,523.6638200385448 M96.40554270356051,523.6638200385448 L105.49642162886147,532.4961399982978 M105.49642162886147,532.4961399982978 L115.28606946486565,541.0480104410499 M115.28606946486565,541.0480104410499 L125.75331392578016,549.298359453602 M125.75331392578016,549.298359453602 L136.87549291773422,557.2264788959606 M80.39407778406371,505.24581746201966 L99.60973579777522,499.2553521911774 M99.60973579777522,499.2553521911774 L95.24025863278638,493.37506208064735 M95.24025863278638,493.37506208064735 L76.03580769589564,499.3564441852882 M49.27353478011645,439.21797426528724 L51.753707770828896,449.52348331380495 M51.753707770828896,449.52348331380495 L55.03376655193773,459.74772481452396 M55.03376655193773,459.74772481452396 L59.10918878660084,469.86692141746084 M59.10918878660084,469.86692141746084 L63.97385074665772,479.85718018497016 M63.97385074665772,479.85718018497016 L69.6194556300589,489.6948630857413 M69.6194556300589,489.6948630857413 L76.03580769589564,499.3564441852882 M49.27353478011645,439.21797426528724 L70.0777639557856,437.1877281758103 M70.0777639557856,437.1877281758103 L68.92616126334053,430.7737994881152 M68.92616126334053,430.7737994881152 L48.138986224832536,432.80066871419194 M53.017427036569245,370.66828746405145 L50.22792172220454,380.91511725191515 M50.22792172220454,380.91511725191515 L48.220490040754555,391.23612558972036 M48.220490040754555,391.23612558972036 L47.00280193450379,401.6084509521413 M47.00280193450379,401.6084509521413 L46.580837979122066,412.00894765627777 M46.580837979122066,412.00894765627777 L46.95878501566676,422.41419609852153 M46.95878501566676,422.41419609852153 L48.138986224832536,432.80066871419194 M53.017427036569245,370.66828746405145 L73.33287699501898,372.66354185893647 M73.33287699501898,372.66354185893647 L75.43400401992096,366.35668606763807 M75.43400401992096,366.35668606763807 L55.13484068634921,364.36470098242364 M90.37000022936309,306.29347094683203 L82.7129731019445,315.50272980511386 M82.7129731019445,315.50272980511386 L75.74742060175583,324.9266251908525 M75.74742060175583,324.9266251908525 L69.49113123453492,334.5453846234482 M69.49113123453492,334.5453846234482 L63.96049194257955,344.338675776788 M63.96049194257955,344.338675776788 L59.17059463671387,354.2855600483217 M59.17059463671387,354.2855600483217 L55.13484068634921,364.36470098242364 M90.37000022936309,306.29347094683203 L108.2683459581242,311.9894685832933 M108.2683459581242,311.9894685832933 L113.34331393042851,306.38958197822683 M113.34331393042851,306.38958197822683 L95.45434280771872,300.70203677098766 M156.988724882471,252.06753197733792 L145.29292047239784,259.4031134441914 M145.29292047239784,259.4031134441914 L134.14021850953947,267.06795375216245 M134.14021850953947,267.06795375216245 L123.55606049899023,275.0467070858223 M123.55606049899023,275.0467070858223 L113.56495588507096,283.3232693530896 M113.56495588507096,283.3232693530896 L104.19029762682317,291.88086832773786 M104.19029762682317,291.88086832773786 L95.45434280771872,300.70203677098766 M156.988724882471,252.06753197733792 L170.85364540868193,260.81607361460635 M170.85364540868193,260.81607361460635 L178.36408216874455,256.4312001127655 M178.36408216874455,256.4312001127655 L164.4985042918201,247.69285492448057 M246.11436133379004,212.78918918856004 L231.52683930529545,217.61432428297678 M231.52683930529545,217.61432428297678 L217.29318999918573,222.85058977638732 M217.29318999918573,222.85058977638732 L203.44393521561364,228.4879103014165 M203.44393521561364,228.4879103014165 L190.00898325725723,234.51536945637065 M190.00898325725723,234.51536945637065 L177.0176542726411,240.92119752081146 M177.0176542726411,240.92119752081146 L164.4985042918201,247.69285492448057 M246.11436133379004,212.78918918856004 L254.74780087487648,223.70120387652037 M254.74780087487648,223.70120387652037 L263.9629479555102,220.91306013408496 M263.9629479555102,220.91306013408496 L255.31923397961808,210.0091951320045 M349.3044150659932,191.8026929111213 L333.17980222885194,193.71246076773957 M333.17980222885194,193.71246076773957 L317.1953421341874,196.0788902819529 M317.1953421341874,196.0788902819529 L301.3841939587934,198.8975699102739 M301.3841939587934,198.8975699102739 L285.77942525839717,202.16310845523697 M285.77942525839717,202.16310845523697 L270.4136752430213,205.86933178627407 M270.4136752430213,205.86933178627407 L255.31923397961808,210.0091951320045 M349.3044150659932,191.8026929111213 L351.98641111447,203.8327091395313 M351.98641111447,203.8327091395313 L362.051512519456,202.8768603286502 M362.051512519456,202.8768603286502 L359.3536772802879,190.8498975799215 M457.14625569968905,190.84991072124205 L440.9417161784869,189.68709856976204 M440.9417161784869,189.68709856976204 L424.65460219545275,188.9885334523135 M424.65460219545275,188.9885334523135 L408.3184870601249,188.75553022913948 M408.3184870601249,188.75553022913948 L391.9671258184708,188.9885334523135 M391.9671258184708,188.9885334523135 L375.63427004692005,189.68709200115347 M375.63427004692005,189.68709200115347 L359.3536772802879,190.8498975799215 M457.14625569968905,190.84991072124205 L453.66141640607157,202.8768603286502 M453.66141640607157,202.8768603286502 L463.66400642141605,203.8327157331188 M463.66400642141605,203.8327157331188 L467.13313022653796,191.8026929111213 M559.9270320941545,210.00919182974997 L545.1034801648732,205.86932518908645 M545.1034801648732,205.86932518908645 L529.9802013028473,202.16309856928171 M529.9802013028473,202.16309856928171 L514.5891233210243,198.89755015567152 M514.5891233210243,198.89755015567152 L498.9624531740361,196.07889686184262 M498.9624531740361,196.07889686184262 L483.1328141279711,193.7124541920275 M483.1328141279711,193.7124541920275 L467.13313022653796,191.8026929111213 M559.9270320941545,210.00919182974997 L550.5698614442886,220.9130733817085 M550.5698614442886,220.9130733817085 L559.6025337792353,223.70118730464048 M559.6025337792353,223.70118730464048 L568.9499902609218,212.78919249327396 M648.2819946874122,247.69285826014993 L636.2059347716865,240.92120085046383 M636.2059347716865,240.92120085046383 L623.633769554169,234.51536613240523 M623.633769554169,234.51536613240523 L610.5932233968506,228.48792689451102 M610.5932233968506,228.48792689451102 L597.112819184513,222.85058977638732 M597.112819184513,222.85058977638732 L583.2218001160354,217.61432097399233 M583.2218001160354,217.61432097399233 L568.9499902609218,212.78919249327396 M648.2819946874122,247.69285826014993 L633.8446459143313,256.4312001127655 M633.8446459143313,256.4312001127655 L641.0681671127736,260.81607361460647 M641.0681671127736,260.81607361460647 L655.5055257196984,252.0675353168972 M713.8576047489637,300.70204015394575 L705.698856752357,291.88086495267214 M705.698856752357,291.88086495267214 L696.8841426109753,283.3232693530897 M696.8841426109753,283.3232693530897 L687.4345708528414,275.046697005733 M687.4345708528414,275.046697005733 L677.3725200605463,267.0679503992475 M677.3725200605463,267.0679503992475 L666.7213408034651,259.40311679027866 M666.7213408034651,259.40311679027866 L655.5055257196984,252.0675353168972 M713.8576047489637,300.70204015394575 L695.5964913609557,306.38957859017523 M695.5964913609557,306.38957859017523 L700.3050362491393,311.9894685832933 M700.3050362491393,311.9894685832933 L718.5760938877066,306.29346755886615 M750.0114602396725,364.3647078628054 L746.6352372175022,354.2855531861263 M746.6352372175022,354.2855531861263 L742.4961946828705,344.3386689325167 M742.4961946828705,344.3386689325167 L737.60636009985,334.54537779680095 M737.60636009985,334.54537779680095 L731.9794387122442,324.92662859553207 M731.9794387122442,324.92662859553207 L725.6305368291,315.5027230126717 M725.6305368291,315.5027230126717 L718.5760938877066,306.29346755886615 M750.0114602396725,364.3647078628054 L729.5819663870459,366.3566860676382 M729.5819663870459,366.3566860676382 L731.2704055937215,372.66354875431034 M731.2704055937215,372.66354875431034 L751.716422224687,370.6682874640518 M752.5293299070083,432.80062668718995 L754.3891726272379,422.41419609852153 M754.3891726272379,422.41419609852153 L755.4479777688093,412.0089406896036 M755.4479777688093,412.0089406896036 L755.7065498161917,401.6084440043504 M755.7065498161917,401.6084440043504 L755.1675543772069,391.23611866073566 M755.1675543772069,391.23611866073566 L753.8354352904842,380.9151241622119 M753.8354352904842,380.9151241622119 L751.716422224687,370.6682874640518 M752.5293299070083,432.80062668718995 L731.8747909808877,430.7738064889237 M731.8747909808877,430.7738064889237 L730.30352793783,437.1877211633156 M416.3738424987209,392.5126506678944 L413.268802072453,390.91515384296974 M413.268802072453,390.91515384296974 L409.7077226927523,389.7285440863784 M409.7077226927523,389.7285440863784 L405.8270419668054,388.99800497195304 M405.8270419668054,388.99800497195304 L401.77530948698393,388.7513607696776 M401.77530948698393,388.7513607696776 L397.70741541603576,388.99801882181316 M397.70741541603576,388.99801882181316 L393.77897913826223,389.72853023387165 M393.77897913826223,389.72853023387165 L390.1402553477094,390.91516769977613 M390.1402553477094,390.91516769977613 L386.9306638785871,392.5126506678944 M386.9306638785871,392.5126506678944 L384.273393244171,394.4601063138184 M384.273393244171,394.4601063138184 L382.2706186223073,396.68315617552446 M382.2706186223073,396.68315617552446 L380.99984777361976,399.0967521856013 M380.99984777361976,399.0967521856013 L380.5104211666172,401.6084440043504 M380.5104211666172,401.6084440043504 L380.822010616292,404.12177044125235 M380.822010616292,404.12177044125235 L381.9233715380945,406.5400888166015 M381.9233715380945,406.5400888166015 L383.77281224251874,408.7701646160814 M383.77281224251874,408.7701646160814 L386.2997386224414,410.7258939916077 M386.2997386224414,410.7258939916077 L389.4071759498623,412.3316784870343 M389.4071759498623,412.3316784870343 L392.9756236669789,413.52531416568615 M392.9756236669789,413.52531416568615 L396.86752237130236,414.2605479303659 M396.86752237130236,414.2605479303659 L400.9326145020905,414.5088406953097 M400.9326145020905,414.5088406953097 L405.01397615688415,414.26053398883494 M405.01397615688415,414.26053398883494 L408.9539374920397,413.52532810454534 M408.9539374920397,413.52532810454534 L412.6004892887704,412.3316645525132 M412.6004892887704,412.3316645525132 L415.81302004881354,410.7258939916077 M415.81302004881354,410.7258939916077 L418.46789364148856,408.77015069449885 M418.46789364148856,408.77015069449885 L420.463299975648,406.5400749031178 M420.463299975648,406.5400749031178 L421.7228529574626,404.12178434595626 M421.7228529574626,404.12178434595626 L422.19891988781046,401.6084440043504 M422.19891988781046,401.6084440043504 L421.8738629536595,399.0967660720711 M421.8738629536595,399.0967660720711 L420.7609768844111,396.683142297809 M420.7609768844111,396.683142297809 L418.9037080999052,394.4600924441635 M418.9037080999052,394.4600924441635 L416.3738424987209,392.5126506678944 M696.7102494397211,499.2553664433524 L696.7642527085653,482.7214115763355 M695.5964913609557,306.38957859017523 L695.647840824786,290.0404909167278 M700.3050362491393,311.9894685832933 L700.3619635171248,295.63485041188255 M713.9303682109442,284.35857950979016 L713.8576047489637,300.70204015394575 M718.6544585032755,289.94447489048423 L718.5760938877066,306.29346755886615 M655.5097116105143,235.77260201007584 L655.5055257196984,252.0675353168972 M750.1276681032682,347.95883499355125 L750.0114602396725,364.3647078628054 M641.0681671127736,260.81607361460647 L641.0554868856664,244.51235686194877 M729.5819663870459,366.3566860676382 L729.6739959114957,349.9488806550604 M633.8446459143313,256.4312001127655 L633.8235368625994,240.13188275850132 M731.2704055937215,372.66354875431034 L731.3645137856752,356.24963278547216 M648.2777517191138,231.40232600050126 L648.2819946874122,247.69285826014993 M751.83474782345,354.2563033163824 L751.716422224687,370.6682874640518 M568.8536553177764,196.5339871788741 L568.9499902609218,212.78919249327396 M752.649592184274,416.3290659650046 L752.5293299070083,432.80062668718995 M559.6025337792353,223.70118730464048 L559.4951888186515,207.4348970129115 M731.8747909808877,430.7738064889237 L731.970339036191,414.3041702969515 M550.5698614442886,220.9130733817085 L550.4520573581085,204.6496118853786 M559.8202604666806,193.75681649652006 L559.9270320941545,210.00919182974997 M466.91918005909315,175.5689107345811 L467.13313022653796,191.8026929111213 M463.66400642141605,203.8327157331188 L463.44568718448704,187.58663651029258 M453.66141640607157,202.8768603286502 L453.43152667682756,186.6317565341318 M456.92077134972635,174.61710439600154 L457.14625569968905,190.84991072124205 M715.6106677827984,488.70627705387847 L715.5339100283397,505.2457889136233 M359.0149806571902,174.61709126814242 L359.3536772802879,190.8498975799215 M655.6558217749616,540.6392153279335 L655.6512885120112,557.2264788959606 M362.051512519456,202.8768603286502 L361.71539660313425,186.6317565341318 M640.6539777314575,547.7748945725577 L640.6403104051265,531.1962512117702 M351.98641111447,203.8327091395313 L351.6385796042638,187.5866299234326 M633.1323993787419,552.5065250301898 L633.1095928572474,535.9235627726223 M348.95403976855664,175.5689107345811 L349.3044150659932,191.8026929111213 M648.1250931341343,545.3780007116 L648.1296991066548,561.9695797132806 M254.85891654666102,193.7568197954115 L255.31923397961808,210.0091951320045 M564.5400988998339,583.5948984973563 L564.6466924593115,600.221024542609 M263.9629479555102,220.91306013408496 L263.5120046290503,204.6495986512018 M555.1046329755047,588.1838143915613 L554.9865662474167,571.5685108254731 M254.74780087487648,223.70120387652037 L254.28597394055626,207.43491356798506 M545.5506206721459,591.2526230886426 L545.4208518965911,574.634556127249 M245.64318462401388,196.53398387752304 L246.11436133379004,212.78918918856004 M554.9634777892313,586.6703438053946 L555.0818001731218,603.2992301940383 M163.92991658414522,231.4023226681901 L164.4985042918201,247.69285492448057 M456.18254336351197,606.9286023885891 L456.42203167544926,623.5755978173099 M178.36408216874455,256.4312001127655 L177.81102501336818,240.13188275850132 M453.4115208903261,610.1551039403555 L453.1687592672036,593.5200802080083 M170.85364540868193,260.81607361460635 L170.29148867359442,244.51235686194855 M442.8092155344576,611.2182012983003 L442.55345340642805,594.5822271940237 M156.41103990022742,235.77259867387397 L156.988724882471,252.06753197733792 M445.54942019670483,607.9943809455888 L445.80195255358024,624.6423255442648 M94.80062301076845,284.35857613018186 L95.45434280771872,300.70203677098766 M341.934233237003,607.9944103527948 L342.3135582794534,624.6423549776559 M113.34331393042851,306.38958197822683 L112.71013291006886,290.0404943014303 M346.18472387614753,611.2182012983003 L345.8107805085933,594.5822271940237 M108.2683459581242,311.9894685832933 L107.62872473768198,295.63485041188255 M335.6519802021346,610.1551039403555 L335.2652065837442,593.5200802080083 M89.70981885287694,289.9444782751008 L90.37000022936309,306.29347094683203 M331.3711279313377,606.9286023885891 L331.76332583172615,623.5755978173099 M54.42784205039948,347.95882811984677 L55.13484068634921,364.36470098242364 M233.9201860660695,586.6703438053946 L234.43030151534182,603.2992301940383 M75.43400401992096,366.35668606763807 L74.75087468653243,349.9488806550603 M244.74977463460405,591.2525939041045 L244.25303159557643,574.6345269689771 M73.33287699501898,372.66354185893647 L72.6466899604286,356.2496258967724 M235.3965161763058,588.1838143915613 L234.88856118457724,571.5685108254731 M52.30733242165866,354.2563033163824 L53.017427036569245,370.66828746405145 M224.54542589528776,583.5949277223872 L225.06677781773413,600.2210537938847 M47.41726919585585,416.32910795211365 L48.138986224832536,432.80066871419194 M143.46949026505575,545.3780007116 L144.0867268626078,561.9695797132806 M68.92616126334053,430.7737994881152 L68.22947567843948,414.30416330279263 M159.70322293629968,552.5065250301898 L159.10569207314512,535.9235627726223 M70.0777639557856,437.1877281758103 L69.3818737651053,420.7120061310666 M152.49124950367144,547.7748945725577 L151.88533136966342,531.1962512117702 M48.55257203962202,422.7403284828772 L49.27353478011645,439.21797426528724 M136.24987174655053,540.6392153279335 L136.87549291773422,557.2264788959606 M75.34147154411005,482.82239546143956 L76.03580769589564,499.3564441852882 M79.70447250402412,488.7063055758184 L80.39407778406371,505.24581746201966 M95.24025863278638,493.37506208064735 L94.56959527717476,476.8465728961877 M99.60973579777522,499.2553521911774 L98.94383115291527,482.7213973373948 M416.3738424987209,392.5126506678944 L416.0937646997184,376.0795840400301" stroke="black"  stroke-width="4"  fill="red"/>
<path d="M640.6539777314575,547.7748945725577 L640.6403104051265,531.1962512117702 M633.1323993787419,552.5065250301898 L633.1095928572474,535.9235627726223 M640.6539777314575,547.7748945725577 L633.1323993787419,552.5065250301898 M640.6403104051265,531.1962512117702 L633.1095928572474,535.9235627726223 M655.6834919879042,566.7359014109768 L655.6880699392914,550.1399928876681 M633.1323993787419,552.5065250301898 L655.6834919879042,566.7359014109768 M633.1095928572474,535.9235627726223 L655.6880699392914,550.1399928876681 M663.2050786213174,561.9870179835395 L663.2187957980557,545.3954231288233 M655.6834919879042,566.7359014109768 L663.2050786213174,561.9870179835395 M655.6880699392914,550.1399928876681 L663.2187957980557,545.3954231288233 M663.2050786213174,561.9870179835395 L640.6539777314575,547.7748945725577 M663.2187957980557,545.3954231288233 L640.6403104051265,531.1962512117702" stroke="black"  stroke-width="4"  fill="red"/>
<path d="M701.4645828710466,493.3750763112205 L701.5242729691128,476.8465871135206 M696.7102494397211,499.2553664433524 L696.7642527085653,482.7214115763355 M701.4645828710466,493.3750763112205 L696.7102494397211,499.2553664433524 M701.5242729691128,476.8465871135206 L696.7642527085653,482.7214115763355 M725.0087497802563,508.2610423248426 L725.0969742244399,491.7187375937692 M696.7102494397211,499.2553664433524 L725.0087497802563,508.2610423248426 M696.7642527085653,482.7214115763355 L725.0969742244399,491.7187375937692 M729.7470750457629,502.367123028485 L729.8409476114084,485.83028016111825 M725.0087497802563,508.2610423248426 L729.7470750457629,502.367123028485 M725.0969742244399,491.7187375937692 L729.8409476114084,485.83028016111825 M729.7470750457629,502.367123028485 L701.4645828710466,493.3750763112205 M729.8409476114084,485.83028016111825 L701.5242729691128,476.8465871135206" stroke="black"  stroke-width="4"  fill="red"/>
<path d="M731.8747909808877,430.7738064889237 L731.970339036191,414.3041702969515 M730.30352793783,437.1877211633156 L730.3972765522441,420.71199912521854 M731.8747909808877,430.7738064889237 L730.30352793783,437.1877211633156 M731.970339036191,414.3041702969515 L730.3972765522441,420.71199912521854 M761.3717695940659,440.2390855174482 L761.5027282159624,423.76047267601007 M730.30352793783,437.1877211633156 L761.3717695940659,440.2390855174482 M730.3972765522441,420.71199912521854 L761.5027282159624,423.76047267601007 M762.917746503312,433.8200847229016 L763.0504439830306,417.3475564751782 M761.3717695940659,440.2390855174482 L762.917746503312,433.8200847229016 M761.5027282159624,423.76047267601007 L763.0504439830306,417.3475564751782 M762.917746503312,433.8200847229016 L731.8747909808877,430.7738064889237 M763.0504439830306,417.3475564751782 L731.970339036191,414.3041702969515" stroke="black"  stroke-width="4"  fill="red"/>
<path d="M729.5819663870459,366.3566860676382 L729.6739959114957,349.9488806550604 M731.2704055937215,372.66354875431034 L731.3645137856752,356.24963278547216 M729.5819663870459,366.3566860676382 L731.2704055937215,372.66354875431034 M729.6739959114957,349.9488806550604 L731.3645137856752,356.24963278547216 M761.991813293703,369.6655154676596 L762.1223048462937,353.25450267531164 M731.2704055937215,372.66354875431034 L761.991813293703,369.6655154676596 M731.3645137856752,356.24963278547216 L762.1223048462937,353.25450267531164 M760.2786520809009,363.3636062203467 L760.407006400293,346.95870504805885 M761.991813293703,369.6655154676596 L760.2786520809009,363.3636062203467 M762.1223048462937,353.25450267531164 L760.407006400293,346.95870504805885 M760.2786520809009,363.3636062203467 L729.5819663870459,366.3566860676382 M760.407006400293,346.95870504805885 L729.6739959114957,349.9488806550604" stroke="black"  stroke-width="4"  fill="red"/>
<path d="M695.5964913609557,306.38957859017523 L695.647840824786,290.0404909167278 M700.3050362491393,311.9894685832933 L700.3619635171248,295.63485041188255 M695.5964913609557,306.38957859017523 L700.3050362491393,311.9894685832933 M695.647840824786,290.0404909167278 L700.3619635171248,295.63485041188255 M727.7517438135349,303.43299269462534 L727.8408619590858,287.08682889843294 M700.3050362491393,311.9894685832933 L727.7517438135349,303.43299269462534 M700.3619635171248,295.63485041188255 L727.8408619590858,287.08682889843294 M723.0282570902771,297.84579231085297 L723.1117623765292,281.5051613166703 M727.7517438135349,303.43299269462534 L723.0282570902771,297.84579231085297 M727.8408619590858,287.08682889843294 L723.1117623765292,281.5051613166703 M723.0282570902771,297.84579231085297 L695.5964913609557,306.38957859017523 M723.1117623765292,281.5051613166703 L695.647840824786,290.0404909167278" stroke="black"  stroke-width="4"  fill="red"/>
<path d="M633.8446459143313,256.4312001127655 L633.8235368625994,240.13188275850132 M641.0681671127736,260.81607361460647 L641.0554868856664,244.51235686194877 M633.8446459143313,256.4312001127655 L641.0681671127736,260.81607361460647 M633.8235368625994,240.13188275850132 L641.0554868856664,244.51235686194877 M662.7514108705773,247.6767803686298 L662.764046787067,231.38626429475062 M641.0681671127736,260.81607361460647 L662.7514108705773,247.6767803686298 M641.0554868856664,244.51235686194877 L662.764046787067,231.38626429475062 M655.5278822892166,243.30721627799778 L655.5320893551792,227.02110206240638 M662.7514108705773,247.6767803686298 L655.5278822892166,243.30721627799778 M662.764046787067,231.38626429475062 L655.5320893551792,227.02110206240638 M655.5278822892166,243.30721627799778 L633.8446459143313,256.4312001127655 M655.5320893551792,227.02110206240638 L633.8235368625994,240.13188275850132" stroke="black"  stroke-width="4"  fill="red"/>
<path d="M550.5698614442886,220.9130733817085 L550.4520573581085,204.6496118853786 M559.6025337792353,223.70118730464048 L559.4951888186515,207.4348970129115 M550.5698614442886,220.9130733817085 L559.6025337792353,223.70118730464048 M550.4520573581085,204.6496118853786 L559.4951888186515,207.4348970129115 M573.6392527384471,207.31506223436304 L573.5484291435143,191.06543175745014 M559.6025337792353,223.70118730464048 L573.6392527384471,207.31506223436304 M559.4951888186515,207.4348970129115 L573.5484291435143,191.06543175745014 M564.6211605236506,204.53913386275406 L564.5199114903116,188.2923339389207 M573.6392527384471,207.31506223436304 L564.6211605236506,204.53913386275406 M573.5484291435143,191.06543175745014 L564.5199114903116,188.2923339389207 M564.6211605236506,204.53913386275406 L550.5698614442886,220.9130733817085 M564.5199114903116,188.2923339389207 L550.4520573581085,204.6496118853786" stroke="black"  stroke-width="4"  fill="red"/>
<path d="M453.66141640607157,202.8768603286502 L453.43152667682756,186.6317565341318 M463.66400642141605,203.8327157331188 L463.44568718448704,187.58663651029258 M453.66141640607157,202.8768603286502 L463.66400642141605,203.8327157331188 M453.43152667682756,186.6317565341318 L463.44568718448704,187.58663651029258 M468.8730796118896,185.76908107873203 L468.6613158704133,169.54148336218225 M463.66400642141605,203.8327157331188 L468.8730796118896,185.76908107873203 M463.44568718448704,187.58663651029258 L468.6613158704133,169.54148336218225 M458.8940381482991,184.81784824295846 L458.6707583575181,168.59122657300043 M468.8730796118896,185.76908107873203 L458.8940381482991,184.81784824295846 M468.6613158704133,169.54148336218225 L458.6707583575181,168.59122657300043 M458.8940381482991,184.81784824295846 L453.66141640607157,202.8768603286502 M458.6707583575181,168.59122657300043 L453.43152667682756,186.6317565341318" stroke="black"  stroke-width="4"  fill="red"/>
<path d="M351.98641111447,203.8327091395313 L351.6385796042638,187.5866299234326 M362.051512519456,202.8768603286502 L361.71539660313425,186.6317565341318 M351.98641111447,203.8327091395313 L362.051512519456,202.8768603286502 M351.6385796042638,187.5866299234326 L361.71539660313425,186.6317565341318 M358.0005355331924,184.8178548029797 L357.6605483056348,168.5912331262898 M362.051512519456,202.8768603286502 L358.0005355331924,184.8178548029797 M361.71539660313425,186.6317565341318 L357.6605483056348,168.5912331262898 M347.9592850617113,185.76908107873203 L347.6076377352691,169.54148336218225 M358.0005355331924,184.8178548029797 L347.9592850617113,185.76908107873203 M357.6605483056348,168.5912331262898 L347.6076377352691,169.54148336218225 M347.9592850617113,185.76908107873203 L351.98641111447,203.8327091395313 M347.6076377352691,169.54148336218225 L351.6385796042638,187.5866299234326" stroke="black"  stroke-width="4"  fill="red"/>
<path d="M254.74780087487648,223.70120387652037 L254.28597394055626,207.43491356798506 M263.9629479555102,220.91306013408496 L263.5120046290503,204.6495986512018 M254.74780087487648,223.70120387652037 L263.9629479555102,220.91306013408496 M254.28597394055626,207.43491356798506 L263.5120046290503,204.6495986512018 M250.98305063424758,204.53912397049965 L250.51804166326338,188.2923240567576 M263.9629479555102,220.91306013408496 L250.98305063424758,204.53912397049965 M263.5120046290503,204.6495986512018 L250.51804166326338,188.2923240567576 M241.78331043908037,207.31504573500285 L241.3074543660093,191.06541527490708 M250.98305063424758,204.53912397049965 L241.78331043908037,207.31504573500285 M250.51804166326338,188.2923240567576 L241.3074543660093,191.06541527490708 M241.78331043908037,207.31504573500285 L254.74780087487648,223.70120387652037 M241.3074543660093,191.06541527490708 L254.28597394055626,207.43491356798506" stroke="black"  stroke-width="4"  fill="red"/>
<path d="M170.85364540868193,260.81607361460635 L170.29148867359442,244.51235686194855 M178.36408216874455,256.4312001127655 L177.81102501336818,240.13188275850132 M170.85364540868193,260.81607361460635 L178.36408216874455,256.4312001127655 M170.29148867359442,244.51235686194855 L177.81102501336818,240.13188275850132 M157.53958782850825,243.30721627799778 L156.96321979163122,227.02110206240638 M178.36408216874455,256.4312001127655 L157.53958782850825,243.30721627799778 M177.81102501336818,240.13188275850132 L156.96321979163122,227.02110206240638 M150.0301454266979,247.6767803686298 L149.44468129600904,231.38626429475062 M157.53958782850825,243.30721627799778 L150.0301454266979,247.6767803686298 M156.96321979163122,227.02110206240638 L149.44468129600904,231.38626429475062 M150.0301454266979,247.6767803686298 L170.85364540868193,260.81607361460635 M149.44468129600904,231.38626429475062 L170.29148867359442,244.51235686194855" stroke="black"  stroke-width="4"  fill="red"/>
<path d="M108.2683459581242,311.9894685832933 L107.62872473768198,295.63485041188255 M113.34331393042851,306.38958197822683 L112.71013291006886,290.0404943014303 M108.2683459581242,311.9894685832933 L113.34331393042851,306.38958197822683 M107.62872473768198,295.63485041188255 L112.71013291006886,290.0404943014303 M86.47058342468387,297.84578893045125 L85.80656109170434,281.5051579396189 M113.34331393042851,306.38958197822683 L86.47058342468387,297.84578893045125 M112.71013291006886,290.0404943014303 L85.80656109170434,281.5051579396189 M81.38151983656473,303.4329960800286 L80.71102519441354,287.0868322804869 M86.47058342468387,297.84578893045125 L81.38151983656473,303.4329960800286 M85.80656109170434,281.5051579396189 L80.71102519441354,287.0868322804869 M81.38151983656473,303.4329960800286 L108.2683459581242,311.9894685832933 M80.71102519441354,287.0868322804869 L107.62872473768198,295.63485041188255" stroke="black"  stroke-width="4"  fill="red"/>
<path d="M73.33287699501898,372.66354185893647 L72.6466899604286,356.2496258967724 M75.43400401992096,366.35668606763807 L74.75087468653243,349.9488806550603 M73.33287699501898,372.66354185893647 L75.43400401992096,366.35668606763807 M72.6466899604286,356.2496258967724 L74.75087468653243,349.9488806550603 M44.93316461102711,363.3636062203467 L44.214174818187644,346.95870504805885 M75.43400401992096,366.35668606763807 L44.93316461102711,363.3636062203467 M74.75087468653243,349.9488806550603 L44.214174818187644,346.95870504805885 M42.807639730320545,369.6655085777036 L42.085534824508215,353.25449579203087 M44.93316461102711,363.3636062203467 L42.807639730320545,369.6655085777036 M44.214174818187644,346.95870504805885 L42.085534824508215,353.25449579203087 M42.807639730320545,369.6655085777036 L73.33287699501898,372.66354185893647 M42.085534824508215,353.25449579203087 L72.6466899604286,356.2496258967724" stroke="black"  stroke-width="4"  fill="red"/>
<path d="M70.0777639557856,437.1877281758103 L69.3818737651053,420.7120061310666 M68.92616126334053,430.7737994881152 L68.22947567843948,414.30416330279263 M70.0777639557856,437.1877281758103 L68.92616126334053,430.7737994881152 M69.3818737651053,420.7120061310666 L68.22947567843948,414.30416330279263 M37.683867815729684,433.8200707101861 L36.94955601696938,417.3475424757595 M68.92616126334053,430.7737994881152 L37.683867815729684,433.8200707101861 M68.22947567843948,414.30416330279263 L36.94955601696938,417.3475424757595 M38.80985151568552,440.2390855174482 L38.0762733326718,423.76047267601007 M37.683867815729684,433.8200707101861 L38.80985151568552,440.2390855174482 M36.94955601696938,417.3475424757595 L38.0762733326718,423.76047267601007 M38.80985151568552,440.2390855174482 L70.0777639557856,437.1877281758103 M38.0762733326718,423.76047267601007 L69.3818737651053,420.7120061310666" stroke="black"  stroke-width="4"  fill="red"/>
<path d="M99.60973579777522,499.2553521911774 L98.94383115291527,482.7213973373948 M95.24025863278638,493.37506208064735 L94.56959527717476,476.8465728961877 M99.60973579777522,499.2553521911774 L95.24025863278638,493.37506208064735 M98.94383115291527,482.7213973373948 L94.56959527717476,476.8465728961877 M66.3693419996963,502.3671372920978 L65.66307673509328,485.8302944115002 M95.24025863278638,493.37506208064735 L66.3693419996963,502.3671372920978 M94.56959527717476,476.8465728961877 L65.66307673509328,485.8302944115002 M70.721962543666,508.2610851807126 L70.02041409918621,491.7187804099641 M66.3693419996963,502.3671372920978 L70.721962543666,508.2610851807126 M65.66307673509328,485.8302944115002 L70.02041409918621,491.7187804099641 M70.721962543666,508.2610851807126 L99.60973579777522,499.2553521911774 M70.02041409918621,491.7187804099641 L98.94383115291527,482.7213973373948" stroke="black"  stroke-width="4"  fill="red"/>
<path d="M159.70322293629968,552.5065250301898 L159.10569207314512,535.9235627726223 M152.49124950367144,547.7748945725577 L151.88533136966342,531.1962512117702 M159.70322293629968,552.5065250301898 L152.49124950367144,547.7748945725577 M159.10569207314512,535.9235627726223 L151.88533136966342,531.1962512117702 M129.01020630907516,561.9870179835395 L128.37464378686224,545.3954231288233 M152.49124950367144,547.7748945725577 L129.01020630907516,561.9870179835395 M151.88533136966342,531.1962512117702 L128.37464378686224,545.3954231288233 M136.22105910830112,566.7359014109768 L135.59387976825684,550.1399928876681 M129.01020630907516,561.9870179835395 L136.22105910830112,566.7359014109768 M128.37464378686224,545.3954231288233 L135.59387976825684,550.1399928876681 M136.22105910830112,566.7359014109768 L159.70322293629968,552.5065250301898 M135.59387976825684,550.1399928876681 L159.10569207314512,535.9235627726223" stroke="black"  stroke-width="4"  fill="red"/>
<path d="M244.74977463460405,591.2525939041045 L244.25303159557643,574.6345269689771 M235.3965161763058,588.1838143915613 L234.88856118457724,571.5685108254731 M244.74977463460405,591.2525939041045 L235.3965161763058,588.1838143915613 M244.25303159557643,574.6345269689771 L234.88856118457724,571.5685108254731 M219.8614173747129,606.2868899003613 L219.33329980329273,589.655327178895 M235.3965161763058,588.1838143915613 L219.8614173747129,606.2868899003613 M234.88856118457724,571.5685108254731 L219.33329980329273,589.655327178895 M229.23013173943306,609.3698217900201 L228.71326302118044,592.7355002979336 M219.8614173747129,606.2868899003613 L229.23013173943306,609.3698217900201 M219.33329980329273,589.655327178895 L228.71326302118044,592.7355002979336 M229.23013173943306,609.3698217900201 L244.74977463460405,591.2525939041045 M228.71326302118044,592.7355002979336 L244.25303159557643,574.6345269689771" stroke="black"  stroke-width="4"  fill="red"/>
<path d="M346.18472387614753,611.2182012983003 L345.8107805085933,594.5822271940237 M335.6519802021346,610.1551039403555 L335.2652065837442,593.5200802080083 M346.18472387614753,611.2182012983003 L335.6519802021346,610.1551039403555 M345.8107805085933,594.5822271940237 L335.2652065837442,593.5200802080083 M329.8033054863445,630.3402134623177 L329.40836738560256,613.6872048925845 M335.6519802021346,610.1551039403555 L329.8033054863445,630.3402134623177 M335.2652065837442,593.5200802080083 L329.40836738560256,613.6872048925845 M340.36228461896144,631.4087734269995 L339.98024079635303,614.7548163025701 M329.8033054863445,630.3402134623177 L340.36228461896144,631.4087734269995 M329.40836738560256,613.6872048925845 L339.98024079635303,614.7548163025701 M340.36228461896144,631.4087734269995 L346.18472387614753,611.2182012983003 M339.98024079635303,614.7548163025701 L345.8107805085933,594.5822271940237" stroke="black"  stroke-width="4"  fill="red"/>
<path d="M453.4115208903261,610.1551039403555 L453.1687592672036,593.5200802080083 M442.8092155344576,611.2182012983003 L442.55345340642805,594.5822271940237 M453.4115208903261,610.1551039403555 L442.8092155344576,611.2182012983003 M453.1687592672036,593.5200802080083 L442.55345340642805,594.5822271940237 M447.3105244695694,631.4087734269995 L447.0596249194361,614.7548163025701 M442.8092155344576,611.2182012983003 L447.3105244695694,631.4087734269995 M442.55345340642805,594.5822271940237 L447.0596249194361,614.7548163025701 M457.93942271895514,630.3402134623177 L457.70158901576565,613.6872048925845 M447.3105244695694,631.4087734269995 L457.93942271895514,630.3402134623177 M447.0596249194361,614.7548163025701 L457.70158901576565,613.6872048925845 M457.93942271895514,630.3402134623177 L453.4115208903261,610.1551039403555 M457.70158901576565,613.6872048925845 L453.1687592672036,593.5200802080083" stroke="black"  stroke-width="4"  fill="red"/>
<path d="M555.1046329755047,588.1838143915613 L554.9865662474167,571.5685108254731 M545.5506206721459,591.2526230886426 L545.4208518965911,574.634556127249 M555.1046329755047,588.1838143915613 L545.5506206721459,591.2526230886426 M554.9865662474167,571.5685108254731 L545.4208518965911,574.634556127249 M559.8847527439281,609.3698217900201 L559.772211968087,592.7355002979336 M545.5506206721459,591.2526230886426 L559.8847527439281,609.3698217900201 M545.4208518965911,574.634556127249 L559.772211968087,592.7355002979336 M569.4551468100307,606.2868606039037 L569.3543483806882,589.655297908668 M559.8847527439281,609.3698217900201 L569.4551468100307,606.2868606039037 M559.772211968087,592.7355002979336 L569.3543483806882,589.655297908668 M569.4551468100307,606.2868606039037 L555.1046329755047,588.1838143915613 M569.3543483806882,589.655297908668 L554.9865662474167,571.5685108254731" stroke="black"  stroke-width="4"  fill="red"/>
<path d="M416.3738424987209,392.5126506678944 L418.9037080999052,394.4600924441635 M418.9037080999052,394.4600924441635 L420.7609768844111,396.683142297809 M420.7609768844111,396.683142297809 L421.8738629536595,399.0967660720711 M421.8738629536595,399.0967660720711 L422.19891988781046,401.6084440043504 M422.19891988781046,401.6084440043504 L421.7228529574626,404.12178434595626 M421.7228529574626,404.12178434595626 L420.463299975648,406.5400749031178 M420.463299975648,406.5400749031178 L418.46789364148856,408.77015069449885 M418.46789364148856,408.77015069449885 L415.81302004881354,410.7258939916077 M415.81302004881354,410.7258939916077 L412.6004892887704,412.3316645525132 M412.6004892887704,412.3316645525132 L408.9539374920397,413.52532810454534 M408.9539374920397,413.52532810454534 L405.01397615688415,414.26053398883494 M405.01397615688415,414.26053398883494 L400.9326145020905,414.5088406953097 M400.9326145020905,414.5088406953097 L396.86752237130236,414.2605479303659 M396.86752237130236,414.2605479303659 L392.9756236669789,413.52531416568615 M392.9756236669789,413.52531416568615 L389.4071759498623,412.3316784870343 M389.4071759498623,412.3316784870343 L386.2997386224414,410.7258939916077 M386.2997386224414,410.7258939916077 L383.77281224251874,408.7701646160814 M383.77281224251874,408.7701646160814 L381.9233715380945,406.5400888166015 M381.9233715380945,406.5400888166015 L380.822010616292,404.12177044125235 M380.822010616292,404.12177044125235 L380.5104211666172,401.6084440043504 M380.5104211666172,401.6084440043504 L380.99984777361976,399.0967521856013 M380.99984777361976,399.0967521856013 L382.2706186223073,396.68315617552446 M382.2706186223073,396.68315617552446 L384.273393244171,394.4601063138184 M384.273393244171,394.4601063138184 L386.9306638785871,392.5126506678944 M386.9306638785871,392.5126506678944 L390.1402553477094,390.91516769977613 M390.1402553477094,390.91516769977613 L393.77897913826223,389.72853023387165 M393.77897913826223,389.72853023387165 L397.70741541603576,388.99801882181316 M397.70741541603576,388.99801882181316 L401.77530948698393,388.7513607696776 M401.77530948698393,388.7513607696776 L405.8270419668054,388.99800497195304 M405.8270419668054,388.99800497195304 L409.7077226927523,389.7285440863784 M409.7077226927523,389.7285440863784 L413.268802072453,390.91515384296974 M413.268802072453,390.91515384296974 L416.3738424987209,392.5126506678944 M416.0937646997184,376.0795840400301 L415.81302004881354,359.607391063052 M385.983147999274,394.275362655839 L385.665801789894,377.78556990876746 M415.81302004881354,359.607391063052 L417.1596320810246,360.5399432343056 M417.1596320810246,360.5399432343056 L418.34876756125186,361.55107374734473 M418.34876756125186,361.55107374734473 L419.36893696537663,362.63118000735005 M419.36893696537663,362.63118000735005 L420.2102992158343,363.76983539063883 M420.2102992158343,363.76983539063883 L420.86467422257226,364.95618814901775 M420.86467422257226,364.95618814901775 L421.3256632285137,366.1788068185673 M421.3256632285137,366.1788068185673 L421.58873423878015,367.42595536309443 M421.58873423878015,367.42595536309443 L421.6513147589142,368.68564724464295 M421.6513147589142,368.68564724464295 L421.5126126871704,369.9457554396415 M421.5126126871704,369.9457554396415 L421.1739324755639,371.19415080167846 M421.1739324755639,371.19415080167846 L420.63842981891014,372.41877166945005 M420.63842981891014,372.41877166945005 L419.9112013625945,373.6077911972434 M419.9112013625945,373.6077911972434 L418.9990591081731,374.74975757507684 M418.9990591081731,374.74975757507684 L417.9108728977627,375.83358196791914 M417.9108728977627,375.83358196791914 L416.6570013805324,376.8488046657102 M416.6570013805324,376.8488046657102 L415.2495206421048,377.78556990876746 M415.2495206421048,377.78556990876746 L413.70194963737094,378.6347954460741 M413.70194963737094,378.6347954460741 L412.0292028460955,379.3882588966061 M412.0292028460955,379.3882588966061 L410.2474534561576,380.03862848736003 M410.2474534561576,380.03862848736003 L408.37385574943005,380.5796327725111 M408.37385574943005,380.5796327725111 L406.4265923549219,381.00592412816184 M406.4265923549219,381.00592412816184 L404.4244310880912,381.3134288311502 M404.4244310880912,381.3134288311502 L402.3867503837735,381.4991402688464 M402.3867503837735,381.4991402688464 L400.33330476814115,381.5612594622919 M400.33330476814115,381.5612594622919 L398.28395107909915,381.4991402688464 M398.28395107909915,381.4991402688464 L396.2585257070082,381.3134427459503 M396.2585257070082,381.3134427459503 L394.2766204403199,381.00593804184166 M394.2766204403199,381.00593804184166 L392.3573935692,380.57961886038436 M392.3573935692,380.57961886038436 L390.5194772004222,380.0386423975161 M390.5194772004222,380.0386423975161 L388.7805239164712,379.38827280439295 M388.7805239164712,379.38827280439295 L387.1574545495127,378.6348093511166 M387.1574545495127,378.6348093511166 L385.665801789894,377.78556990876746 M385.665801789894,377.78556990876746 L384.3200057380255,376.84879076717164 M384.3200057380255,376.84879076717164 L383.13300817792765,375.8335958627613 M383.13300817792765,375.8335958627613 L382.1162168248159,374.74974368418054 M382.1162168248159,374.74974368418054 L381.27934251956304,373.60780508398307 M381.27934251956304,373.60780508398307 L380.63039324286274,372.41875778703786 M380.63039324286274,372.41875778703786 L380.17555903480746,371.19413692372245 M380.17555903480746,371.19413692372245 L379.9191354018785,369.9457554396415 M379.9191354018785,369.9457554396415 L379.8634394019135,368.68564724464295 M379.8634394019135,368.68564724464295 L380.0089985703525,367.42595536309443 M380.0089985703525,367.42595536309443 L380.3542450019936,366.17879295885393 M380.3542450019936,366.17879295885393 L380.8957705583287,364.95617429374977 M380.8957705583287,364.95617429374977 L381.6282471598337,363.7698492415942 M381.6282471598337,363.7698492415942 L382.54466115650985,362.63116616053367 M382.54466115650985,362.63116616053367 L383.63597853266606,361.55108759023597 M383.63597853266606,361.55108759023597 L384.89172035199636,360.5399293950886 M384.89172035199636,360.5399293950886 L386.2997386224414,359.607391063052 M386.2997386224414,359.607391063052 L387.846493679747,358.7623923979163 M387.846493679747,358.7623923979163 L389.5171024481542,358.01299343049754 M389.5171024481542,358.01299343049754 L391.2954739381179,357.3663696496326 M391.2954739381179,357.3663696496326 L393.16458362291354,356.82864883053674 M393.16458362291354,356.82864883053674 L395.1064213801309,356.4050518689403 M395.1064213801309,356.4050518689403 L397.1024278467595,356.0995493754185 M397.1024278467595,356.0995493754185 L399.13346109640975,355.9150709193617 M399.13346109640975,355.9150709193617 L401.1800221691781,355.8533681471083 M401.1800221691781,355.8533681471083 L403.22251874592695,355.9150709193617 M403.22251874592695,355.9150709193617 L405.2413779392284,356.0995355523312 M405.2413779392284,356.0995355523312 L407.2172602866402,356.4050380447434 M407.2172602866402,356.4050380447434 L409.13123892007195,356.8286626562722 M409.13123892007195,356.8286626562722 L410.96488362274766,357.36635582194447 M410.96488362274766,357.36635582194447 L412.70070561492344,358.01297960046065 M412.70070561492344,358.01297960046065 L414.32190481149917,358.7623785651574 M414.32190481149917,358.7623785651574 L415.81302004881354,359.607391063052" stroke="black"  stroke-width="4"  fill="red"/></svg>